<?xml version="1.0" encoding="UTF-8"?>
<svg xmlns="http://www.w3.org/2000/svg" xmlns:xlink="http://www.w3.org/1999/xlink" width="218.575" height="75.249" viewBox="0 0 218.575 75.249">
<defs>
<g>
<g id="glyph-0-0">
<path d="M 3.296875 -2.984375 C 3.359375 -3.234375 3.578125 -4.140625 4.265625 -4.140625 C 4.3125 -4.140625 4.5625 -4.140625 4.765625 -4.015625 C 4.484375 -3.96875 4.28125 -3.71875 4.28125 -3.484375 C 4.28125 -3.328125 4.390625 -3.140625 4.65625 -3.140625 C 4.875 -3.140625 5.203125 -3.3125 5.203125 -3.703125 C 5.203125 -4.21875 4.609375 -4.359375 4.28125 -4.359375 C 3.703125 -4.359375 3.359375 -3.828125 3.25 -3.609375 C 3 -4.265625 2.46875 -4.359375 2.171875 -4.359375 C 1.15625 -4.359375 0.59375 -3.09375 0.59375 -2.84375 C 0.59375 -2.734375 0.6875 -2.734375 0.703125 -2.734375 C 0.78125 -2.734375 0.8125 -2.765625 0.84375 -2.84375 C 1.171875 -3.890625 1.828125 -4.140625 2.15625 -4.140625 C 2.34375 -4.140625 2.6875 -4.046875 2.6875 -3.484375 C 2.6875 -3.171875 2.53125 -2.515625 2.15625 -1.140625 C 2 -0.515625 1.65625 -0.109375 1.21875 -0.109375 C 1.15625 -0.109375 0.9375 -0.109375 0.734375 -0.234375 C 0.96875 -0.28125 1.1875 -0.5 1.1875 -0.765625 C 1.1875 -1.03125 0.96875 -1.109375 0.828125 -1.109375 C 0.53125 -1.109375 0.28125 -0.859375 0.28125 -0.546875 C 0.28125 -0.09375 0.78125 0.109375 1.21875 0.109375 C 1.859375 0.109375 2.21875 -0.578125 2.25 -0.640625 C 2.359375 -0.28125 2.71875 0.109375 3.3125 0.109375 C 4.328125 0.109375 4.890625 -1.15625 4.890625 -1.40625 C 4.890625 -1.515625 4.796875 -1.515625 4.765625 -1.515625 C 4.6875 -1.515625 4.65625 -1.46875 4.640625 -1.40625 C 4.3125 -0.34375 3.640625 -0.109375 3.328125 -0.109375 C 2.953125 -0.109375 2.796875 -0.421875 2.796875 -0.765625 C 2.796875 -0.96875 2.84375 -1.1875 2.953125 -1.625 Z M 3.296875 -2.984375 "/>
</g>
<g id="glyph-1-0">
<path d="M 2.109375 -3.171875 C 2.140625 -3.328125 2.234375 -3.625 2.234375 -3.671875 C 2.234375 -3.8125 2.109375 -3.921875 1.953125 -3.921875 C 1.671875 -3.921875 1.59375 -3.671875 1.578125 -3.578125 L 0.3125 1.46875 C 0.28125 1.59375 0.28125 1.609375 0.28125 1.65625 C 0.28125 1.8125 0.375 1.921875 0.546875 1.921875 C 0.828125 1.921875 0.90625 1.65625 0.9375 1.515625 L 1.359375 -0.171875 C 1.59375 0.015625 1.9375 0.09375 2.234375 0.09375 C 2.5625 0.09375 2.984375 0 3.4375 -0.546875 C 3.546875 -0.078125 3.96875 0.09375 4.265625 0.09375 C 4.53125 0.09375 4.75 -0.015625 4.9375 -0.390625 C 5.109375 -0.6875 5.234375 -1.234375 5.234375 -1.265625 C 5.234375 -1.3125 5.203125 -1.375 5.109375 -1.375 C 5 -1.375 5 -1.328125 4.96875 -1.15625 C 4.765625 -0.390625 4.578125 -0.125 4.296875 -0.125 C 4.078125 -0.125 4.015625 -0.34375 4.015625 -0.53125 C 4.015625 -0.703125 4.0625 -0.875 4.140625 -1.1875 L 4.359375 -2.109375 L 4.578125 -2.890625 C 4.625 -3.125 4.734375 -3.53125 4.734375 -3.5625 C 4.734375 -3.6875 4.65625 -3.828125 4.453125 -3.828125 C 4.171875 -3.828125 4.109375 -3.578125 4.046875 -3.34375 L 3.859375 -2.59375 C 3.765625 -2.25 3.515625 -1.21875 3.453125 -0.984375 C 3.4375 -0.953125 3.015625 -0.125 2.265625 -0.125 C 1.609375 -0.125 1.609375 -0.75 1.609375 -0.90625 C 1.609375 -1.109375 1.640625 -1.265625 1.734375 -1.671875 Z M 2.109375 -3.171875 "/>
</g>
<g id="glyph-1-1">
<path d="M 4.71875 -3.28125 C 4.84375 -3.28125 5.171875 -3.28125 5.171875 -3.59375 C 5.171875 -3.828125 4.96875 -3.828125 4.796875 -3.828125 L 2.71875 -3.828125 C 1.375 -3.828125 0.34375 -2.4375 0.34375 -1.328125 C 0.34375 -0.421875 0.96875 0.09375 1.734375 0.09375 C 2.8125 0.09375 4.015625 -0.96875 4.015625 -2.328125 C 4.015625 -2.890625 3.765625 -3.234375 3.75 -3.28125 Z M 1.734375 -0.125 C 1.40625 -0.125 0.9375 -0.3125 0.9375 -1.078125 C 0.9375 -1.6875 1.28125 -3.28125 2.5625 -3.28125 C 3 -3.28125 3.40625 -3.078125 3.40625 -2.421875 C 3.40625 -2.203125 3.296875 -1.390625 2.890625 -0.828125 C 2.59375 -0.40625 2.140625 -0.125 1.734375 -0.125 Z M 1.734375 -0.125 "/>
</g>
<g id="glyph-2-0">
<path d="M 5.984375 -2.03125 C 6.15625 -2.03125 6.3125 -2.03125 6.3125 -2.234375 C 6.3125 -2.40625 6.140625 -2.40625 5.984375 -2.40625 L 1.09375 -2.40625 C 0.9375 -2.40625 0.765625 -2.40625 0.765625 -2.234375 C 0.765625 -2.03125 0.9375 -2.03125 1.09375 -2.03125 Z M 5.984375 -2.03125 "/>
</g>
<g id="glyph-3-0">
<path d="M 4.09375 -1.578125 L 3.859375 -1.578125 C 3.828125 -1.453125 3.765625 -0.9375 3.640625 -0.796875 C 3.59375 -0.703125 2.984375 -0.703125 2.796875 -0.703125 L 1.21875 -0.703125 L 2.109375 -1.546875 C 3.5625 -2.796875 4.09375 -3.28125 4.09375 -4.1875 C 4.09375 -5.203125 3.25 -5.90625 2.171875 -5.90625 C 1.140625 -5.90625 0.453125 -5.109375 0.453125 -4.296875 C 0.453125 -3.859375 0.828125 -3.8125 0.921875 -3.8125 C 1.109375 -3.8125 1.375 -3.953125 1.375 -4.265625 C 1.375 -4.53125 1.1875 -4.734375 0.921875 -4.734375 C 0.875 -4.734375 0.84375 -4.734375 0.8125 -4.71875 C 1.015625 -5.34375 1.59375 -5.640625 2.0625 -5.640625 C 2.96875 -5.640625 3.28125 -4.796875 3.28125 -4.1875 C 3.28125 -3.28125 2.59375 -2.53125 2.171875 -2.078125 L 0.546875 -0.3125 C 0.453125 -0.21875 0.453125 -0.203125 0.453125 0 L 3.859375 0 Z M 4.09375 -1.578125 "/>
</g>
<g id="glyph-3-1">
<path d="M 6.265625 -2.03125 C 6.390625 -2.03125 6.578125 -2.03125 6.578125 -2.21875 C 6.578125 -2.40625 6.40625 -2.40625 6.265625 -2.40625 L 3.734375 -2.40625 L 3.734375 -4.953125 C 3.734375 -5.09375 3.734375 -5.265625 3.546875 -5.265625 C 3.359375 -5.265625 3.359375 -5.078125 3.359375 -4.953125 L 3.359375 -2.40625 L 0.8125 -2.40625 C 0.6875 -2.40625 0.5 -2.40625 0.5 -2.234375 C 0.5 -2.03125 0.671875 -2.03125 0.8125 -2.03125 L 3.359375 -2.03125 L 3.359375 0.5 C 3.359375 0.640625 3.359375 0.8125 3.546875 0.8125 C 3.734375 0.8125 3.734375 0.625 3.734375 0.5 L 3.734375 -2.03125 Z M 6.265625 -2.03125 "/>
</g>
<g id="glyph-4-0">
<path d="M 1.6875 -3.078125 C 1.6875 -3.609375 1.6875 -4.203125 1.921875 -4.6875 C 2.15625 -5.171875 2.6875 -5.46875 3.203125 -5.46875 C 3.484375 -5.46875 3.640625 -5.375 3.859375 -5.265625 C 3.625 -5.15625 3.390625 -5.046875 3.390625 -4.6875 C 3.390625 -4.390625 3.609375 -4.109375 3.96875 -4.109375 C 4.28125 -4.109375 4.546875 -4.34375 4.546875 -4.71875 C 4.546875 -5.5 3.859375 -5.828125 3.21875 -5.828125 C 1.734375 -5.828125 0.4375 -4.84375 0.4375 -2.828125 C 0.4375 -2.046875 0.546875 -1.1875 1.078125 -0.546875 C 1.453125 -0.09375 2.0625 0.09375 2.640625 0.09375 C 3.6875 0.09375 4.8125 -0.46875 4.8125 -1.859375 C 4.8125 -2.9375 3.96875 -3.734375 2.84375 -3.734375 C 2.3125 -3.734375 1.90625 -3.515625 1.6875 -3.078125 Z M 1.703125 -1.640625 L 1.703125 -1.90625 C 1.703125 -2.515625 1.921875 -3.375 2.71875 -3.375 C 3.40625 -3.375 3.5625 -2.859375 3.5625 -2.015625 C 3.5625 -1.796875 3.5625 -1.578125 3.546875 -1.359375 C 3.546875 -1.140625 3.546875 -0.859375 3.40625 -0.671875 C 3.234375 -0.40625 2.9375 -0.3125 2.640625 -0.3125 C 2.34375 -0.3125 2.078125 -0.46875 1.90625 -0.703125 C 1.71875 -0.96875 1.734375 -1.3125 1.703125 -1.640625 Z M 1.703125 -1.640625 "/>
</g>
<g id="glyph-4-1">
<path d="M 1.578125 -2.9375 L 1.578125 -2.921875 C 0.9375 -2.703125 0.4375 -2.140625 0.4375 -1.4375 C 0.4375 -0.390625 1.390625 0.09375 2.625 0.09375 C 3.625 0.09375 4.8125 -0.375 4.8125 -1.65625 C 4.8125 -2.234375 4.46875 -2.765625 4 -3.078125 C 3.875 -3.15625 3.734375 -3.21875 3.609375 -3.296875 C 4.125 -3.515625 4.515625 -3.953125 4.515625 -4.53125 C 4.515625 -5.453125 3.5625 -5.84375 2.640625 -5.84375 C 1.75 -5.84375 0.734375 -5.40625 0.734375 -4.265625 C 0.734375 -3.71875 1.09375 -3.125 1.578125 -2.9375 Z M 1.234375 -1.34375 L 1.234375 -1.453125 C 1.234375 -1.9375 1.53125 -2.34375 1.9375 -2.625 C 1.96875 -2.640625 2 -2.65625 2.046875 -2.65625 C 2.078125 -2.65625 2.109375 -2.640625 2.140625 -2.625 L 2.359375 -2.515625 C 2.59375 -2.375 2.859375 -2.234375 3.109375 -2.09375 C 3.421875 -1.921875 4.015625 -1.671875 4.015625 -1.234375 C 4.015625 -0.4375 3.21875 -0.3125 2.625 -0.3125 C 1.96875 -0.3125 1.34375 -0.5625 1.234375 -1.34375 Z M 1.4375 -4.734375 C 1.421875 -4.75 1.421875 -4.78125 1.421875 -4.796875 C 1.421875 -5.4375 2.34375 -5.46875 2.609375 -5.46875 C 3.109375 -5.46875 3.8125 -5.28125 3.8125 -4.53125 C 3.8125 -4.125 3.609375 -3.828125 3.265625 -3.578125 C 3.234375 -3.5625 3.21875 -3.546875 3.1875 -3.546875 L 3.171875 -3.546875 C 3.109375 -3.546875 2.96875 -3.640625 2.875 -3.6875 C 2.640625 -3.8125 2.421875 -3.9375 2.1875 -4.0625 L 1.984375 -4.1875 C 1.75 -4.296875 1.46875 -4.453125 1.4375 -4.734375 Z M 1.4375 -4.734375 "/>
</g>
<g id="glyph-4-2">
<path d="M 3.359375 -5.734375 C 3.875 -5.515625 4.40625 -5.375 4.96875 -5.375 C 5.328125 -5.375 5.625 -5.4375 5.953125 -5.53125 C 5.765625 -5.265625 5.546875 -5.015625 5.34375 -4.765625 C 4.53125 -3.75 3.71875 -2.734375 2.90625 -1.71875 L 2.015625 -0.609375 C 1.828125 -0.359375 1.453125 0 1.453125 0.203125 C 1.453125 0.359375 1.59375 0.484375 1.75 0.484375 L 1.78125 0.484375 C 1.953125 0.46875 2.0625 0.265625 2.15625 0.140625 L 7.03125 -5.96875 C 7.140625 -6.09375 7.28125 -6.234375 7.28125 -6.390625 C 7.28125 -6.5625 7.140625 -6.671875 7 -6.671875 C 6.84375 -6.671875 6.75 -6.515625 6.65625 -6.421875 C 6.1875 -5.953125 5.640625 -5.75 5.015625 -5.71875 L 4.9375 -5.71875 C 4.265625 -5.71875 3.5 -5.96875 2.984375 -6.359375 C 2.71875 -6.53125 2.515625 -6.671875 2.140625 -6.671875 C 1.265625 -6.671875 0.578125 -5.96875 0.578125 -4.875 C 0.578125 -3.921875 1.15625 -3.09375 2.125 -3.09375 C 3.15625 -3.09375 3.5 -4.0625 3.5 -4.859375 C 3.5 -5.140625 3.46875 -5.453125 3.359375 -5.734375 Z M 6.6875 -3.09375 C 5.71875 -2.96875 5.25 -2.203125 5.25 -1.28125 C 5.25 -0.4375 5.6875 0.484375 6.84375 0.484375 L 6.921875 0.484375 C 7.921875 0.3125 8.15625 -0.546875 8.15625 -1.328125 C 8.15625 -2.140625 7.765625 -3.09375 6.8125 -3.09375 C 6.765625 -3.09375 6.734375 -3.09375 6.6875 -3.09375 Z M 7.6875 -1.140625 C 7.65625 -0.625 7.46875 0.140625 6.828125 0.140625 C 6.21875 0.140625 6.1875 -0.703125 6.1875 -1.1875 L 6.1875 -1.546875 C 6.1875 -2.03125 6.234375 -2.71875 6.828125 -2.71875 C 7.546875 -2.71875 7.703125 -1.78125 7.703125 -1.28125 C 7.703125 -1.234375 7.703125 -1.1875 7.6875 -1.140625 Z M 3.03125 -4.71875 C 3 -4.203125 2.796875 -3.4375 2.171875 -3.4375 C 1.5625 -3.4375 1.53125 -4.28125 1.53125 -4.75 L 1.53125 -5.125 C 1.53125 -5.609375 1.578125 -6.296875 2.171875 -6.296875 C 2.890625 -6.296875 3.046875 -5.34375 3.046875 -4.859375 C 3.046875 -4.8125 3.046875 -4.765625 3.03125 -4.71875 Z M 3.03125 -4.71875 "/>
</g>
<g id="glyph-5-0">
<path d="M 2.8125 -1.609375 L 4.515625 -1.609375 C 4.59375 -1.609375 4.734375 -1.609375 4.734375 -1.75 C 4.734375 -1.890625 4.59375 -1.890625 4.515625 -1.890625 L 2.8125 -1.890625 L 2.8125 -3.578125 C 2.8125 -3.65625 2.8125 -3.8125 2.671875 -3.8125 C 2.53125 -3.8125 2.53125 -3.671875 2.53125 -3.609375 L 2.53125 -1.890625 L 0.828125 -1.890625 C 0.75 -1.890625 0.609375 -1.890625 0.609375 -1.75 C 0.609375 -1.609375 0.75 -1.609375 0.828125 -1.609375 L 2.53125 -1.609375 L 2.53125 0.03125 L 0.828125 0.03125 C 0.75 0.03125 0.609375 0.03125 0.609375 0.171875 C 0.609375 0.3125 0.75 0.3125 0.828125 0.3125 L 4.515625 0.3125 C 4.59375 0.3125 4.734375 0.3125 4.734375 0.171875 C 4.734375 0.03125 4.59375 0.03125 4.515625 0.03125 L 2.8125 0.03125 Z M 2.8125 -1.609375 "/>
</g>
<g id="glyph-5-1">
<path d="M 4.734375 -2.4375 C 4.734375 -2.609375 4.671875 -2.65625 4.640625 -2.65625 C 4.5625 -2.65625 4.546875 -2.546875 4.53125 -2.5 C 4.53125 -2.390625 4.515625 -2.203125 4.234375 -2.015625 C 4.015625 -1.875 3.78125 -1.875 3.703125 -1.875 C 3.34375 -1.875 3.015625 -2.0625 2.703125 -2.25 C 2.359375 -2.46875 2.03125 -2.65625 1.640625 -2.65625 C 1.0625 -2.65625 0.609375 -2.234375 0.609375 -1.703125 C 0.609375 -1.5625 0.65625 -1.484375 0.71875 -1.484375 C 0.75 -1.484375 0.796875 -1.515625 0.8125 -1.671875 C 0.828125 -2.015625 1.234375 -2.265625 1.640625 -2.265625 C 2.015625 -2.265625 2.328125 -2.078125 2.640625 -1.890625 C 2.984375 -1.671875 3.3125 -1.484375 3.703125 -1.484375 C 4.296875 -1.484375 4.734375 -1.90625 4.734375 -2.4375 Z M 4.734375 -1.03125 C 4.734375 -1.203125 4.671875 -1.25 4.625 -1.25 C 4.578125 -1.25 4.546875 -1.15625 4.53125 -1.09375 C 4.53125 -0.984375 4.515625 -0.796875 4.234375 -0.609375 C 4.015625 -0.46875 3.78125 -0.46875 3.703125 -0.46875 C 3.34375 -0.46875 3.015625 -0.65625 2.703125 -0.84375 C 2.359375 -1.0625 2.03125 -1.25 1.640625 -1.25 C 1.0625 -1.25 0.609375 -0.828125 0.609375 -0.296875 C 0.609375 -0.15625 0.65625 -0.078125 0.71875 -0.078125 C 0.75 -0.078125 0.796875 -0.109375 0.8125 -0.265625 C 0.828125 -0.609375 1.234375 -0.859375 1.640625 -0.859375 C 2.015625 -0.859375 2.328125 -0.671875 2.640625 -0.484375 C 2.984375 -0.265625 3.3125 -0.078125 3.703125 -0.078125 C 4.296875 -0.078125 4.734375 -0.5 4.734375 -1.03125 Z M 4.734375 -1.03125 "/>
</g>
<g id="glyph-6-0">
<path d="M 3.40625 -1.75 C 3.484375 -1.75 3.546875 -1.75 3.609375 -1.796875 C 3.640625 -1.828125 3.6875 -1.890625 3.6875 -1.96875 C 3.6875 -2.125 3.546875 -2.125 3.46875 -2.125 L 2.015625 -2.125 C 1.171875 -2.125 0.515625 -1.375 0.515625 -0.78125 C 0.515625 -0.265625 0.9375 0.046875 1.484375 0.046875 C 2.1875 0.046875 2.953125 -0.5 2.953125 -1.234375 C 2.953125 -1.4375 2.890625 -1.609375 2.796875 -1.75 Z M 1.5 -0.109375 C 1.28125 -0.109375 0.921875 -0.203125 0.921875 -0.65625 C 0.921875 -0.8125 0.984375 -1.75 1.9375 -1.75 C 2.3125 -1.75 2.53125 -1.609375 2.53125 -1.28125 C 2.53125 -0.765625 2.15625 -0.109375 1.5 -0.109375 Z M 1.5 -0.109375 "/>
</g>
<g id="glyph-7-0">
<path d="M 2.90625 -0.953125 L 2.703125 -0.953125 C 2.6875 -0.859375 2.640625 -0.546875 2.5625 -0.5 C 2.515625 -0.46875 2.109375 -0.46875 2.03125 -0.46875 L 1.0625 -0.46875 C 1.390625 -0.71875 1.75 -1 2.046875 -1.1875 C 2.5 -1.5 2.90625 -1.78125 2.90625 -2.3125 C 2.90625 -2.9375 2.3125 -3.28125 1.609375 -3.28125 C 0.9375 -3.28125 0.453125 -2.90625 0.453125 -2.421875 C 0.453125 -2.15625 0.671875 -2.125 0.734375 -2.125 C 0.875 -2.125 1.03125 -2.203125 1.03125 -2.40625 C 1.03125 -2.59375 0.90625 -2.6875 0.75 -2.703125 C 0.890625 -2.921875 1.171875 -3.078125 1.5 -3.078125 C 1.984375 -3.078125 2.375 -2.78125 2.375 -2.296875 C 2.375 -1.890625 2.09375 -1.5625 1.71875 -1.25 L 0.515625 -0.234375 C 0.453125 -0.1875 0.453125 -0.1875 0.453125 -0.140625 L 0.453125 0 L 2.75 0 Z M 2.90625 -0.953125 "/>
</g>
<g id="glyph-7-1">
<path d="M 2.4375 -1.5625 C 2.4375 -1.265625 2.421875 -0.890625 2.25 -0.59375 C 2.09375 -0.3125 1.796875 -0.09375 1.390625 -0.09375 C 1.34375 -0.09375 1.046875 -0.09375 0.875 -0.21875 C 1 -0.25 1.078125 -0.34375 1.078125 -0.46875 C 1.078125 -0.625 0.953125 -0.734375 0.8125 -0.734375 C 0.71875 -0.734375 0.546875 -0.6875 0.546875 -0.453125 C 0.546875 0.109375 1.28125 0.109375 1.40625 0.109375 C 2.234375 0.109375 2.96875 -0.59375 2.96875 -1.625 C 2.96875 -2.8125 2.375 -3.28125 1.703125 -3.28125 C 1.203125 -3.28125 0.96875 -3.109375 0.765625 -2.953125 C 0.453125 -2.703125 0.390625 -2.421875 0.390625 -2.171875 C 0.390625 -1.890625 0.484375 -1.640625 0.75 -1.40625 C 0.984375 -1.203125 1.203125 -1.078125 1.625 -1.078125 C 1.828125 -1.078125 2.1875 -1.140625 2.4375 -1.5625 Z M 1.640625 -1.234375 C 1.4375 -1.234375 1.25 -1.28125 1.078125 -1.5 C 0.921875 -1.671875 0.921875 -1.875 0.921875 -2.171875 C 0.921875 -2.53125 0.9375 -2.671875 1.125 -2.875 C 1.1875 -2.953125 1.34375 -3.09375 1.703125 -3.09375 C 2.421875 -3.09375 2.421875 -2.28125 2.421875 -2.078125 C 2.421875 -1.65625 2.140625 -1.234375 1.640625 -1.234375 Z M 1.640625 -1.234375 "/>
</g>
<g id="glyph-7-2">
<path d="M 0.96875 -2.71875 C 1.234375 -2.65625 1.453125 -2.65625 1.5 -2.65625 C 1.84375 -2.65625 2.09375 -2.75 2.21875 -2.828125 C 2.328125 -2.890625 2.671875 -3.09375 2.671875 -3.203125 C 2.671875 -3.28125 2.609375 -3.28125 2.609375 -3.28125 C 2.59375 -3.28125 2.578125 -3.28125 2.53125 -3.265625 C 2.34375 -3.203125 2.03125 -3.125 1.703125 -3.125 C 1.421875 -3.125 1.15625 -3.1875 0.890625 -3.265625 C 0.84375 -3.28125 0.828125 -3.28125 0.8125 -3.28125 C 0.75 -3.28125 0.75 -3.234375 0.75 -3.15625 L 0.75 -1.671875 C 0.75 -1.578125 0.75 -1.515625 0.84375 -1.515625 C 0.90625 -1.515625 0.90625 -1.53125 0.953125 -1.578125 C 1.140625 -1.796875 1.390625 -1.90625 1.734375 -1.90625 C 2.015625 -1.90625 2.171875 -1.75 2.25 -1.640625 C 2.359375 -1.46875 2.390625 -1.25 2.390625 -1.015625 C 2.390625 -0.8125 2.359375 -0.53125 2.171875 -0.328125 C 1.953125 -0.109375 1.671875 -0.09375 1.5625 -0.09375 C 1.234375 -0.09375 0.875 -0.234375 0.71875 -0.515625 C 0.9375 -0.53125 1 -0.6875 1 -0.796875 C 1 -0.953125 0.890625 -1.078125 0.71875 -1.078125 C 0.609375 -1.078125 0.453125 -1.015625 0.453125 -0.78125 C 0.453125 -0.296875 0.921875 0.109375 1.5625 0.109375 C 2.3125 0.109375 2.90625 -0.390625 2.90625 -1 C 2.90625 -1.5625 2.421875 -2.078125 1.75 -2.078125 C 1.4375 -2.078125 1.1875 -2 0.96875 -1.828125 Z M 0.96875 -2.71875 "/>
</g>
<g id="glyph-7-3">
<path d="M 4.9375 -0.71875 C 4.9375 -1.28125 4.5625 -1.71875 4.125 -1.71875 C 3.640625 -1.71875 3.21875 -1.28125 3.21875 -0.71875 C 3.21875 -0.140625 3.65625 0.28125 4.125 0.28125 C 4.578125 0.28125 4.9375 -0.15625 4.9375 -0.71875 Z M 4.125 0.109375 C 3.953125 0.109375 3.8125 0 3.734375 -0.140625 C 3.625 -0.328125 3.625 -0.5625 3.625 -0.71875 C 3.625 -0.828125 3.625 -1.078125 3.71875 -1.265625 C 3.78125 -1.40625 3.921875 -1.546875 4.125 -1.546875 C 4.421875 -1.546875 4.71875 -1.21875 4.71875 -0.71875 C 4.71875 -0.234375 4.4375 0.109375 4.125 0.109375 Z M 4.359375 -3.453125 C 4.40625 -3.484375 4.40625 -3.53125 4.40625 -3.5625 C 4.40625 -3.640625 4.359375 -3.703125 4.28125 -3.703125 C 4.21875 -3.703125 4.203125 -3.671875 4.125 -3.609375 C 3.8125 -3.265625 3.40625 -3.140625 3.015625 -3.140625 C 2.71875 -3.140625 2.296875 -3.21875 1.828125 -3.546875 C 1.71875 -3.609375 1.59375 -3.703125 1.375 -3.703125 C 0.90625 -3.703125 0.484375 -3.28125 0.484375 -2.703125 C 0.484375 -2.125 0.90625 -1.71875 1.375 -1.71875 C 1.828125 -1.71875 2.1875 -2.15625 2.1875 -2.703125 C 2.1875 -2.984375 2.09375 -3.1875 2.09375 -3.1875 C 2.28125 -3.109375 2.625 -2.984375 3.015625 -2.984375 C 3.25 -2.984375 3.484375 -3.015625 3.703125 -3.109375 L 1.0625 0.015625 C 1.015625 0.0625 1 0.09375 1 0.140625 C 1 0.21875 1.0625 0.28125 1.140625 0.28125 C 1.1875 0.28125 1.21875 0.25 1.265625 0.203125 Z M 1.390625 -1.875 C 1.203125 -1.875 1.078125 -2 0.984375 -2.140625 C 0.890625 -2.3125 0.875 -2.5625 0.875 -2.703125 C 0.875 -2.8125 0.875 -3.078125 0.984375 -3.265625 C 1.046875 -3.390625 1.1875 -3.546875 1.390625 -3.546875 C 1.6875 -3.546875 1.984375 -3.1875 1.984375 -2.703125 C 1.984375 -2.21875 1.6875 -1.875 1.390625 -1.875 Z M 1.390625 -1.875 "/>
</g>
</g>
</defs>
<path fill="none" stroke-width="0.3985" stroke-linecap="butt" stroke-linejoin="miter" stroke="rgb(0%, 0%, 0%)" stroke-opacity="1" stroke-miterlimit="10" d="M -96.945131 -0.0004719 L 96.548928 -0.0004719 " transform="matrix(0.990118, 0, 0, -0.990118, 102.971535, 53.105002)"/>
<path fill="none" stroke-width="0.3985" stroke-linecap="round" stroke-linejoin="round" stroke="rgb(0%, 0%, 0%)" stroke-opacity="1" stroke-miterlimit="10" d="M -2.071289 2.390341 C -1.692547 0.95822 -0.848266 0.27964 -0.000040735 -0.0004719 C -0.848266 -0.280584 -1.692547 -0.955219 -2.071289 -2.391284 " transform="matrix(0.990118, 0, 0, -0.990118, 198.761759, 53.105002)"/>
<g fill="rgb(0%, 0%, 0%)" fill-opacity="1">
<use xlink:href="#glyph-0-0" x="202.441802" y="55.228806"/>
</g>
<path fill="none" stroke-width="0.3985" stroke-linecap="butt" stroke-linejoin="miter" stroke="rgb(0%, 0%, 0%)" stroke-opacity="1" stroke-miterlimit="10" d="M 0.00113285 -2.553039 L 0.00113285 40.422407 " transform="matrix(0.990118, 0, 0, -0.990118, 102.971535, 53.105002)"/>
<path fill="none" stroke-width="0.3985" stroke-linecap="round" stroke-linejoin="round" stroke="rgb(0%, 0%, 0%)" stroke-opacity="1" stroke-miterlimit="10" d="M -2.071589 2.38968 C -1.692847 0.957559 -0.848566 0.278979 -0.000340769 -0.00113285 C -0.848566 -0.277299 -1.692847 -0.95588 -2.071589 -2.391945 " transform="matrix(0, -0.990118, -0.990118, 0, 102.971535, 12.886381)"/>
<path fill="none" stroke-width="0.79701" stroke-linecap="butt" stroke-linejoin="miter" stroke="rgb(0%, 27.450562%, 49.804688%)" stroke-opacity="1" stroke-miterlimit="10" d="M -89.291374 0.0665971 L -87.488402 0.0863233 L -85.685429 0.109995 L -83.882457 0.137611 L -82.079484 0.173118 L -80.272567 0.216516 L -78.469594 0.267804 L -76.666622 0.334873 L -74.863649 0.409833 L -73.060677 0.504518 L -71.257704 0.61893 L -69.454732 0.749123 L -67.647814 0.910877 L -65.844842 1.092358 L -64.041869 1.309346 L -62.238897 1.561841 L -60.435924 1.849843 L -58.632952 2.181243 L -56.82998 2.559986 L -55.023062 2.990016 L -53.220089 3.47528 L -51.417117 4.015777 L -49.614144 4.619398 L -47.811172 5.286143 L -46.008199 6.023902 L -44.205227 6.824785 L -42.398309 7.696682 L -40.595337 8.631703 L -38.792364 9.637738 L -36.989392 10.702951 L -35.186419 11.827343 L -33.383447 13.006968 L -31.576529 14.233937 L -29.773557 15.496412 L -27.970584 16.786504 L -26.167612 18.092377 L -24.364639 19.40614 L -22.561667 20.712013 L -20.758695 21.990269 L -18.951777 23.236963 L -17.148804 24.424479 L -15.345832 25.552816 L -13.542859 26.594358 L -11.739887 27.54516 L -9.936914 28.38155 L -8.133942 29.103528 L -6.327024 29.691368 L -4.524052 30.14507 L -2.721079 30.444908 L -0.918107 30.598772 L 0.884866 30.602717 L 2.687838 30.448853 L 4.49081 30.149015 L 6.297728 29.703204 L 8.100701 29.115364 L 9.903673 28.397331 L 11.706646 27.560941 L 13.509618 26.614084 L 15.31259 25.572542 L 17.115563 24.44815 L 18.922481 23.256689 L 20.725453 22.017885 L 22.528426 20.731739 L 24.331398 19.433756 L 26.134371 18.119993 L 27.937343 16.810175 L 29.740315 15.520083 L 31.547233 14.257608 L 33.350206 13.03064 L 35.153178 11.851014 L 36.956151 10.722677 L 38.759123 9.653519 L 40.562095 8.651429 L 42.365068 7.708518 L 44.171986 6.840566 L 45.974958 6.035738 L 47.777931 5.301924 L 49.580903 4.631234 L 51.383875 4.027613 L 53.186848 3.483171 L 54.98982 2.997907 L 56.796738 2.567876 L 58.599711 2.189134 L 60.402683 1.853789 L 62.205656 1.565786 L 64.008628 1.313291 L 65.8116 1.096303 L 67.614573 0.910877 L 69.421491 0.753068 L 71.224463 0.61893 L 73.027436 0.508463 L 74.830408 0.413778 L 76.63338 0.334873 L 78.436353 0.271749 L 80.239325 0.216516 L 82.046243 0.173118 L 83.849216 0.137611 L 85.652188 0.109995 L 87.45516 0.0863233 L 89.258133 0.0665971 " transform="matrix(0.990118, 0, 0, -0.990118, 102.971535, 53.105002)"/>
<path fill-rule="nonzero" fill="rgb(86.274719%, 92.156982%, 98.039246%)" fill-opacity="0.5" d="M 77.710938 53.105469 L 77.710938 34.714844 L 78.742188 33.96875 L 79.773438 33.21875 L 80.804688 32.476562 L 81.835938 31.742188 L 82.863281 31.019531 L 83.894531 30.308594 L 84.925781 29.613281 L 85.957031 28.941406 L 86.988281 28.289062 L 88.019531 27.660156 L 89.050781 27.058594 L 90.078125 26.488281 L 91.109375 25.953125 L 92.140625 25.449219 L 93.171875 24.984375 L 94.203125 24.558594 L 95.234375 24.179688 L 96.261719 23.839844 L 97.292969 23.542969 L 98.324219 23.296875 L 99.355469 23.09375 L 100.386719 22.945312 L 101.417969 22.84375 L 102.449219 22.796875 L 103.476562 22.792969 L 104.507812 22.84375 L 105.539062 22.945312 L 106.570312 23.09375 L 107.601562 23.292969 L 108.632812 23.539062 L 109.660156 23.832031 L 110.691406 24.171875 L 111.722656 24.554688 L 112.753906 24.976562 L 113.785156 25.441406 L 114.816406 25.941406 L 115.847656 26.480469 L 116.875 27.050781 L 117.90625 27.648438 L 118.9375 28.277344 L 119.96875 28.929688 L 121 29.605469 L 122.03125 30.296875 L 123.058594 31.007812 L 124.089844 31.730469 L 125.121094 32.464844 L 126.152344 33.207031 L 127.183594 33.953125 L 128.214844 34.703125 L 128.230469 53.105469 Z M 77.710938 53.105469 "/>
<path fill="none" stroke-width="0.3985" stroke-linecap="butt" stroke-linejoin="miter" stroke="rgb(0%, 0%, 0%)" stroke-opacity="1" stroke-miterlimit="10" d="M -51.022593 1.273839 L -51.022593 -1.274783 " transform="matrix(0.990118, 0, 0, -0.990118, 102.971535, 53.105002)"/>
<g fill="rgb(0%, 0%, 0%)" fill-opacity="1">
<use xlink:href="#glyph-1-0" x="41.106955" y="63.573524"/>
</g>
<g fill="rgb(0%, 0%, 0%)" fill-opacity="1">
<use xlink:href="#glyph-2-0" x="46.604093" y="63.573524"/>
</g>
<g fill="rgb(0%, 0%, 0%)" fill-opacity="1">
<use xlink:href="#glyph-3-0" x="53.700272" y="63.573524"/>
</g>
<g fill="rgb(0%, 0%, 0%)" fill-opacity="1">
<use xlink:href="#glyph-1-1" x="58.262737" y="63.573524"/>
</g>
<path fill="none" stroke-width="0.3985" stroke-linecap="butt" stroke-linejoin="miter" stroke="rgb(0%, 0%, 0%)" stroke-opacity="1" stroke-miterlimit="10" d="M -25.512703 1.273839 L -25.512703 -1.274783 " transform="matrix(0.990118, 0, 0, -0.990118, 102.971535, 53.105002)"/>
<g fill="rgb(0%, 0%, 0%)" fill-opacity="1">
<use xlink:href="#glyph-1-0" x="68.647099" y="63.113119"/>
</g>
<g fill="rgb(0%, 0%, 0%)" fill-opacity="1">
<use xlink:href="#glyph-2-0" x="74.144237" y="63.113119"/>
</g>
<g fill="rgb(0%, 0%, 0%)" fill-opacity="1">
<use xlink:href="#glyph-1-1" x="81.241406" y="63.113119"/>
</g>
<path fill="none" stroke-width="0.3985" stroke-linecap="butt" stroke-linejoin="miter" stroke="rgb(0%, 0%, 0%)" stroke-opacity="1" stroke-miterlimit="10" d="M 0.00113285 1.273839 L 0.00113285 -1.274783 " transform="matrix(0.990118, 0, 0, -0.990118, 102.971535, 53.105002)"/>
<g fill="rgb(0%, 0%, 0%)" fill-opacity="1">
<use xlink:href="#glyph-1-0" x="100.222966" y="61.674476"/>
</g>
<path fill="none" stroke-width="0.3985" stroke-linecap="butt" stroke-linejoin="miter" stroke="rgb(0%, 0%, 0%)" stroke-opacity="1" stroke-miterlimit="10" d="M 25.511023 1.273839 L 25.511023 -1.274783 " transform="matrix(0.990118, 0, 0, -0.990118, 102.971535, 53.105002)"/>
<g fill="rgb(0%, 0%, 0%)" fill-opacity="1">
<use xlink:href="#glyph-1-0" x="119.165911" y="63.113119"/>
</g>
<g fill="rgb(0%, 0%, 0%)" fill-opacity="1">
<use xlink:href="#glyph-3-1" x="124.663049" y="63.113119"/>
</g>
<g fill="rgb(0%, 0%, 0%)" fill-opacity="1">
<use xlink:href="#glyph-1-1" x="131.760218" y="63.113119"/>
</g>
<path fill="none" stroke-width="0.3985" stroke-linecap="butt" stroke-linejoin="miter" stroke="rgb(0%, 0%, 0%)" stroke-opacity="1" stroke-miterlimit="10" d="M 51.024859 1.273839 L 51.024859 -1.274783 " transform="matrix(0.990118, 0, 0, -0.990118, 102.971535, 53.105002)"/>
<g fill="rgb(0%, 0%, 0%)" fill-opacity="1">
<use xlink:href="#glyph-1-0" x="142.14458" y="63.573524"/>
</g>
<g fill="rgb(0%, 0%, 0%)" fill-opacity="1">
<use xlink:href="#glyph-3-1" x="147.641717" y="63.573524"/>
<use xlink:href="#glyph-3-0" x="154.738629" y="63.573524"/>
</g>
<g fill="rgb(0%, 0%, 0%)" fill-opacity="1">
<use xlink:href="#glyph-1-1" x="159.300362" y="63.573524"/>
</g>
<g fill="rgb(0%, 27.450562%, 49.804688%)" fill-opacity="1">
<use xlink:href="#glyph-4-0" x="93.343623" y="43.55729"/>
<use xlink:href="#glyph-4-1" x="98.59484" y="43.55729"/>
<use xlink:href="#glyph-4-2" x="103.846058" y="43.55729"/>
</g>
<path fill="none" stroke-width="0.3985" stroke-linecap="butt" stroke-linejoin="miter" stroke="rgb(39.99939%, 56.469727%, 69.880676%)" stroke-opacity="1" stroke-miterlimit="10" d="M -25.114234 25.513364 L 25.112555 25.513364 " transform="matrix(0.990118, 0, 0, -0.990118, 102.971535, 53.105002)"/>
<path fill="none" stroke-width="0.3985" stroke-linecap="round" stroke-linejoin="round" stroke="rgb(39.99939%, 56.469727%, 69.880676%)" stroke-opacity="1" stroke-miterlimit="10" d="M -2.072433 2.389379 C -1.69369 0.957258 -0.84941 0.278678 -0.00118411 -0.00143383 C -0.84941 -0.2776 -1.69369 -0.956181 -2.072433 -2.392246 " transform="matrix(-0.990118, 0, 0, 0.990118, 77.908984, 27.84517)"/>
<path fill="none" stroke-width="0.3985" stroke-linecap="round" stroke-linejoin="round" stroke="rgb(39.99939%, 56.469727%, 69.880676%)" stroke-opacity="1" stroke-miterlimit="10" d="M -2.074112 2.392246 C -1.69537 0.956181 -0.851089 0.2776 0.00108159 0.00143383 C -0.851089 -0.278678 -1.69537 -0.957258 -2.074112 -2.389379 " transform="matrix(0.990118, 0, 0, -0.990118, 128.034085, 27.84517)"/>
<g fill="rgb(39.99939%, 56.469727%, 69.880676%)" fill-opacity="1">
<use xlink:href="#glyph-5-0" x="98.201144" y="23.539075"/>
</g>
<g fill="rgb(39.99939%, 56.469727%, 69.880676%)" fill-opacity="1">
<use xlink:href="#glyph-6-0" x="103.544813" y="23.539075"/>
</g>
<path fill="none" stroke-width="0.3985" stroke-linecap="butt" stroke-linejoin="miter" stroke="rgb(59.999084%, 70.980835%, 79.920959%)" stroke-opacity="1" stroke-miterlimit="10" d="M -50.624125 33.16712 L 50.62639 33.16712 " transform="matrix(0.990118, 0, 0, -0.990118, 102.971535, 53.105002)"/>
<path fill="none" stroke-width="0.3985" stroke-linecap="round" stroke-linejoin="round" stroke="rgb(59.999084%, 70.980835%, 79.920959%)" stroke-opacity="1" stroke-miterlimit="10" d="M -2.070567 2.389292 C -1.691824 0.957172 -0.851489 0.278592 0.000681619 -0.00152003 C -0.851489 -0.277686 -1.691824 -0.956267 -2.070567 -2.392333 " transform="matrix(-0.990118, 0, 0, 0.990118, 52.649112, 20.26713)"/>
<path fill="none" stroke-width="0.3985" stroke-linecap="round" stroke-linejoin="round" stroke="rgb(59.999084%, 70.980835%, 79.920959%)" stroke-opacity="1" stroke-miterlimit="10" d="M -2.072246 2.392333 C -1.693504 0.956267 -0.849223 0.277686 -0.000997912 0.00152003 C -0.849223 -0.278592 -1.693504 -0.957172 -2.072246 -2.389292 " transform="matrix(0.990118, 0, 0, -0.990118, 153.293957, 20.26713)"/>
<g fill="rgb(59.999084%, 70.980835%, 79.920959%)" fill-opacity="1">
<use xlink:href="#glyph-5-0" x="85.772187" y="15.961699"/>
</g>
<g fill="rgb(59.999084%, 70.980835%, 79.920959%)" fill-opacity="1">
<use xlink:href="#glyph-7-0" x="91.114866" y="15.961699"/>
</g>
<g fill="rgb(59.999084%, 70.980835%, 79.920959%)" fill-opacity="1">
<use xlink:href="#glyph-6-0" x="94.471368" y="15.961699"/>
</g>
<g fill="rgb(59.999084%, 70.980835%, 79.920959%)" fill-opacity="1">
<use xlink:href="#glyph-5-1" x="100.686341" y="15.961699"/>
</g>
<g fill="rgb(59.999084%, 70.980835%, 79.920959%)" fill-opacity="1">
<use xlink:href="#glyph-7-1" x="108.045891" y="15.961699"/>
<use xlink:href="#glyph-7-2" x="111.402663" y="15.961699"/>
<use xlink:href="#glyph-7-3" x="114.759435" y="15.961699"/>
</g>
</svg>
