<?xml version="1.0" encoding="UTF-8"?>
<svg xmlns="http://www.w3.org/2000/svg" xmlns:xlink="http://www.w3.org/1999/xlink" width="148.193" height="117.038" viewBox="0 0 148.193 117.038">
<defs>
<g>
<g id="glyph-0-0">
<path d="M 4.359375 -2.09375 C 4.359375 -3.40625 3.5625 -3.921875 2.8125 -3.921875 C 1.59375 -3.921875 0.375 -2.703125 0.375 -1.421875 C 0.375 -0.5 1 0.09375 1.859375 0.09375 C 2.828125 0.09375 3.5625 -0.46875 3.78125 -0.65625 C 3.90625 -0.203125 4.203125 0.09375 4.625 0.09375 C 5.109375 0.09375 5.40625 -0.375 5.40625 -0.53125 C 5.40625 -0.625 5.3125 -0.625 5.28125 -0.625 C 5.1875 -0.625 5.171875 -0.59375 5.140625 -0.515625 C 5.046875 -0.265625 4.8125 -0.125 4.65625 -0.125 C 4.375 -0.125 4.375 -0.921875 4.375 -1.09375 C 4.375 -1.203125 4.375 -1.234375 4.453125 -1.328125 C 4.609375 -1.515625 4.84375 -1.828125 5.078125 -2.28125 C 5.34375 -2.796875 5.484375 -3.34375 5.484375 -3.390625 C 5.484375 -3.40625 5.484375 -3.5 5.375 -3.5 C 5.265625 -3.5 5.265625 -3.46875 5.21875 -3.328125 C 5.125 -3.015625 4.921875 -2.34375 4.359375 -1.59375 Z M 3.75 -0.90625 C 3.515625 -0.71875 2.796875 -0.125 1.890625 -0.125 C 1.390625 -0.125 1.0625 -0.453125 1.0625 -1.09375 C 1.0625 -1.46875 1.234375 -2.359375 1.59375 -2.921875 C 1.828125 -3.296875 2.296875 -3.703125 2.8125 -3.703125 C 3.40625 -3.703125 3.59375 -3.171875 3.6875 -2.640625 C 3.75 -2.15625 3.703125 -1.3125 3.75 -0.90625 Z M 3.75 -0.90625 "/>
</g>
<g id="glyph-1-0">
<path d="M 3.6875 -3.734375 C 3.5 -4.09375 3.21875 -4.359375 2.78125 -4.359375 C 1.625 -4.359375 0.390625 -2.90625 0.390625 -1.46875 C 0.390625 -0.546875 0.9375 0.109375 1.703125 0.109375 C 1.90625 0.109375 2.40625 0.0625 2.984375 -0.625 C 3.078125 -0.21875 3.421875 0.109375 3.890625 0.109375 C 4.234375 0.109375 4.46875 -0.125 4.625 -0.4375 C 4.796875 -0.796875 4.921875 -1.390625 4.921875 -1.40625 C 4.921875 -1.515625 4.828125 -1.515625 4.796875 -1.515625 C 4.703125 -1.515625 4.6875 -1.46875 4.65625 -1.328125 C 4.5 -0.6875 4.3125 -0.109375 3.90625 -0.109375 C 3.640625 -0.109375 3.609375 -0.359375 3.609375 -0.5625 C 3.609375 -0.78125 3.640625 -0.859375 3.75 -1.296875 C 3.84375 -1.703125 3.875 -1.8125 3.953125 -2.1875 L 4.3125 -3.5625 C 4.390625 -3.84375 4.390625 -3.859375 4.390625 -3.90625 C 4.390625 -4.0625 4.265625 -4.171875 4.09375 -4.171875 C 3.859375 -4.171875 3.71875 -3.953125 3.6875 -3.734375 Z M 3.046875 -1.171875 C 2.984375 -1 2.984375 -0.984375 2.84375 -0.8125 C 2.40625 -0.265625 2 -0.109375 1.734375 -0.109375 C 1.234375 -0.109375 1.09375 -0.65625 1.09375 -1.03125 C 1.09375 -1.53125 1.40625 -2.75 1.640625 -3.203125 C 1.953125 -3.78125 2.390625 -4.140625 2.78125 -4.140625 C 3.421875 -4.140625 3.5625 -3.34375 3.5625 -3.28125 C 3.5625 -3.21875 3.546875 -3.15625 3.53125 -3.109375 Z M 3.046875 -1.171875 "/>
</g>
<g id="glyph-1-1">
<path d="M 2.359375 -6.75 C 2.359375 -6.75 2.359375 -6.859375 2.234375 -6.859375 C 2 -6.859375 1.28125 -6.78125 1.03125 -6.75 C 0.953125 -6.75 0.84375 -6.734375 0.84375 -6.5625 C 0.84375 -6.4375 0.921875 -6.4375 1.078125 -6.4375 C 1.546875 -6.4375 1.5625 -6.375 1.5625 -6.265625 C 1.5625 -6.203125 1.484375 -5.859375 1.4375 -5.65625 L 0.625 -2.4375 C 0.5 -1.953125 0.46875 -1.78125 0.46875 -1.4375 C 0.46875 -0.5 0.984375 0.109375 1.71875 0.109375 C 2.890625 0.109375 4.09375 -1.359375 4.09375 -2.78125 C 4.09375 -3.6875 3.578125 -4.359375 2.78125 -4.359375 C 2.328125 -4.359375 1.921875 -4.078125 1.625 -3.765625 Z M 1.4375 -3.015625 C 1.484375 -3.234375 1.484375 -3.25 1.578125 -3.359375 C 2.0625 -4 2.515625 -4.140625 2.765625 -4.140625 C 3.125 -4.140625 3.390625 -3.84375 3.390625 -3.21875 C 3.390625 -2.640625 3.0625 -1.5 2.890625 -1.125 C 2.5625 -0.46875 2.109375 -0.109375 1.71875 -0.109375 C 1.375 -0.109375 1.0625 -0.375 1.0625 -1.109375 C 1.0625 -1.296875 1.0625 -1.484375 1.21875 -2.109375 Z M 1.4375 -3.015625 "/>
</g>
<g id="glyph-1-2">
<path d="M 3.90625 -3.75 C 3.75 -3.75 3.609375 -3.75 3.46875 -3.609375 C 3.3125 -3.46875 3.296875 -3.296875 3.296875 -3.234375 C 3.296875 -2.984375 3.46875 -2.890625 3.65625 -2.890625 C 3.953125 -2.890625 4.21875 -3.125 4.21875 -3.515625 C 4.21875 -4 3.75 -4.359375 3.046875 -4.359375 C 1.71875 -4.359375 0.40625 -2.953125 0.40625 -1.5625 C 0.40625 -0.671875 0.984375 0.109375 2 0.109375 C 3.421875 0.109375 4.25 -0.9375 4.25 -1.0625 C 4.25 -1.109375 4.1875 -1.1875 4.125 -1.1875 C 4.078125 -1.1875 4.0625 -1.171875 4 -1.09375 C 3.21875 -0.109375 2.140625 -0.109375 2.03125 -0.109375 C 1.40625 -0.109375 1.140625 -0.59375 1.140625 -1.1875 C 1.140625 -1.59375 1.328125 -2.546875 1.671875 -3.15625 C 1.96875 -3.71875 2.515625 -4.140625 3.0625 -4.140625 C 3.390625 -4.140625 3.765625 -4.015625 3.90625 -3.75 Z M 3.90625 -3.75 "/>
</g>
</g>
<clipPath id="clip-0">
<path clip-rule="nonzero" d="M 0.203125 0 L 142 0 L 142 111 L 0.203125 111 Z M 0.203125 0 "/>
</clipPath>
</defs>
<g clip-path="url(#clip-0)">
<path fill="none" stroke-width="0.79701" stroke-linecap="butt" stroke-linejoin="miter" stroke="rgb(0%, 27.450562%, 49.804688%)" stroke-opacity="1" stroke-miterlimit="10" d="M -0.000544486 0.000113561 L 124.742995 0.000113561 L 124.742995 93.555799 Z M -0.000544486 0.000113561 " transform="matrix(0.991847, 0, 0, -0.991847, 6.527884, 99.1173)"/>
</g>
<path fill="none" stroke-width="0.79701" stroke-linecap="butt" stroke-linejoin="miter" stroke="rgb(0%, 39.216614%, 23.527527%)" stroke-opacity="1" stroke-miterlimit="10" d="M 124.742995 0.000113561 L 124.742995 7.794123 L 116.948985 7.794123 L 116.948985 0.000113561 Z M 124.742995 0.000113561 " transform="matrix(0.991847, 0, 0, -0.991847, 6.527884, 99.1173)"/>
<path fill="none" stroke-width="0.79701" stroke-linecap="butt" stroke-linejoin="miter" stroke="rgb(100%, 50%, 0%)" stroke-opacity="1" stroke-miterlimit="10" d="M 19.840901 0.000113561 C 19.840901 4.292923 18.450661 8.471521 15.874975 11.905769 " transform="matrix(0.991847, 0, 0, -0.991847, 6.527884, 99.1173)"/>
<g fill="rgb(0%, 0%, 0%)" fill-opacity="1">
<use xlink:href="#glyph-0-0" x="25.006994" y="95.612111"/>
</g>
<g fill="rgb(0%, 0%, 0%)" fill-opacity="1">
<use xlink:href="#glyph-1-0" x="65.769941" y="106.862637"/>
</g>
<g fill="rgb(0%, 0%, 0%)" fill-opacity="1">
<use xlink:href="#glyph-1-1" x="133.726369" y="56.158403"/>
</g>
<g fill="rgb(0%, 0%, 0%)" fill-opacity="1">
<use xlink:href="#glyph-1-2" x="60.615309" y="49.2363"/>
</g>
</svg>
