<?xml version="1.0" encoding="UTF-8"?>
<svg xmlns="http://www.w3.org/2000/svg" xmlns:xlink="http://www.w3.org/1999/xlink" width="222.635" height="165.945" viewBox="0 0 222.635 165.945">
<defs>
<g>
<g id="glyph-0-0">
<path d="M 6.5625 -2.296875 C 6.734375 -2.296875 6.90625 -2.296875 6.90625 -2.484375 C 6.90625 -2.6875 6.734375 -2.6875 6.5625 -2.6875 L 1.171875 -2.6875 C 1 -2.6875 0.828125 -2.6875 0.828125 -2.484375 C 0.828125 -2.296875 1 -2.296875 1.171875 -2.296875 Z M 6.5625 -2.296875 "/>
</g>
<g id="glyph-1-0">
<path d="M 2.890625 -3.5 C 3.703125 -3.765625 4.28125 -4.46875 4.28125 -5.25 C 4.28125 -6.078125 3.40625 -6.625 2.453125 -6.625 C 1.4375 -6.625 0.6875 -6.03125 0.6875 -5.28125 C 0.6875 -4.953125 0.90625 -4.75 1.1875 -4.75 C 1.5 -4.75 1.703125 -4.96875 1.703125 -5.265625 C 1.703125 -5.765625 1.234375 -5.765625 1.078125 -5.765625 C 1.390625 -6.25 2.046875 -6.375 2.40625 -6.375 C 2.8125 -6.375 3.359375 -6.15625 3.359375 -5.265625 C 3.359375 -5.140625 3.34375 -4.5625 3.078125 -4.125 C 2.78125 -3.65625 2.453125 -3.625 2.203125 -3.609375 C 2.125 -3.609375 1.875 -3.578125 1.8125 -3.578125 C 1.734375 -3.578125 1.65625 -3.5625 1.65625 -3.46875 C 1.65625 -3.359375 1.734375 -3.359375 1.90625 -3.359375 L 2.34375 -3.359375 C 3.15625 -3.359375 3.515625 -2.671875 3.515625 -1.703125 C 3.515625 -0.34375 2.84375 -0.0625 2.40625 -0.0625 C 1.96875 -0.0625 1.21875 -0.234375 0.875 -0.8125 C 1.21875 -0.765625 1.53125 -0.984375 1.53125 -1.359375 C 1.53125 -1.71875 1.265625 -1.921875 0.96875 -1.921875 C 0.734375 -1.921875 0.421875 -1.78125 0.421875 -1.34375 C 0.421875 -0.4375 1.34375 0.21875 2.421875 0.21875 C 3.640625 0.21875 4.546875 -0.6875 4.546875 -1.703125 C 4.546875 -2.515625 3.921875 -3.296875 2.890625 -3.5 Z M 2.890625 -3.5 "/>
</g>
<g id="glyph-1-1">
<path d="M 1.265625 -0.765625 L 2.3125 -1.796875 C 3.875 -3.171875 4.46875 -3.703125 4.46875 -4.703125 C 4.46875 -5.828125 3.578125 -6.625 2.359375 -6.625 C 1.234375 -6.625 0.5 -5.71875 0.5 -4.828125 C 0.5 -4.265625 1 -4.265625 1.03125 -4.265625 C 1.1875 -4.265625 1.546875 -4.390625 1.546875 -4.796875 C 1.546875 -5.0625 1.359375 -5.3125 1.015625 -5.3125 C 0.9375 -5.3125 0.921875 -5.3125 0.890625 -5.3125 C 1.109375 -5.953125 1.65625 -6.3125 2.234375 -6.3125 C 3.140625 -6.3125 3.5625 -5.515625 3.5625 -4.703125 C 3.5625 -3.90625 3.0625 -3.109375 2.515625 -2.5 L 0.609375 -0.375 C 0.5 -0.265625 0.5 -0.234375 0.5 0 L 4.1875 0 L 4.46875 -1.734375 L 4.21875 -1.734375 C 4.171875 -1.4375 4.09375 -1 4 -0.84375 C 3.9375 -0.765625 3.28125 -0.765625 3.0625 -0.765625 Z M 1.265625 -0.765625 "/>
</g>
<g id="glyph-1-2">
<path d="M 2.921875 -6.375 C 2.921875 -6.609375 2.921875 -6.625 2.703125 -6.625 C 2.078125 -5.984375 1.203125 -5.984375 0.890625 -5.984375 L 0.890625 -5.6875 C 1.078125 -5.6875 1.671875 -5.6875 2.1875 -5.9375 L 2.1875 -0.78125 C 2.1875 -0.421875 2.15625 -0.3125 1.265625 -0.3125 L 0.953125 -0.3125 L 0.953125 0 C 1.296875 -0.03125 2.15625 -0.03125 2.5625 -0.03125 C 2.953125 -0.03125 3.828125 -0.03125 4.171875 0 L 4.171875 -0.3125 L 3.859375 -0.3125 C 2.953125 -0.3125 2.921875 -0.421875 2.921875 -0.78125 Z M 2.921875 -6.375 "/>
</g>
<g id="glyph-1-3">
<path d="M 4.578125 -3.1875 C 4.578125 -3.984375 4.53125 -4.78125 4.1875 -5.515625 C 3.71875 -6.46875 2.90625 -6.625 2.484375 -6.625 C 1.890625 -6.625 1.171875 -6.375 0.75 -5.4375 C 0.4375 -4.75 0.390625 -3.984375 0.390625 -3.1875 C 0.390625 -2.4375 0.421875 -1.546875 0.84375 -0.78125 C 1.265625 0.015625 1.984375 0.21875 2.484375 0.21875 C 3.015625 0.21875 3.765625 0.015625 4.203125 -0.9375 C 4.53125 -1.625 4.578125 -2.40625 4.578125 -3.1875 Z M 2.484375 0 C 2.09375 0 1.5 -0.25 1.328125 -1.203125 C 1.21875 -1.796875 1.21875 -2.71875 1.21875 -3.296875 C 1.21875 -3.9375 1.21875 -4.59375 1.296875 -5.140625 C 1.484375 -6.3125 2.234375 -6.40625 2.484375 -6.40625 C 2.8125 -6.40625 3.46875 -6.234375 3.65625 -5.25 C 3.75 -4.6875 3.75 -3.9375 3.75 -3.296875 C 3.75 -2.5625 3.75 -1.875 3.640625 -1.25 C 3.5 -0.296875 2.921875 0 2.484375 0 Z M 2.484375 0 "/>
</g>
<g id="glyph-1-4">
<path d="M 4.46875 -2 C 4.46875 -3.1875 3.65625 -4.1875 2.578125 -4.1875 C 2.09375 -4.1875 1.671875 -4.015625 1.3125 -3.671875 L 1.3125 -5.609375 C 1.515625 -5.546875 1.84375 -5.484375 2.15625 -5.484375 C 3.390625 -5.484375 4.078125 -6.390625 4.078125 -6.515625 C 4.078125 -6.578125 4.046875 -6.625 3.984375 -6.625 C 3.96875 -6.625 3.953125 -6.625 3.90625 -6.59375 C 3.703125 -6.515625 3.21875 -6.3125 2.546875 -6.3125 C 2.15625 -6.3125 1.6875 -6.375 1.21875 -6.59375 C 1.140625 -6.625 1.125 -6.625 1.109375 -6.625 C 1 -6.625 1 -6.546875 1 -6.375 L 1 -3.4375 C 1 -3.25 1 -3.171875 1.140625 -3.171875 C 1.21875 -3.171875 1.234375 -3.203125 1.28125 -3.265625 C 1.390625 -3.421875 1.75 -3.96875 2.5625 -3.96875 C 3.078125 -3.96875 3.328125 -3.5 3.40625 -3.328125 C 3.5625 -2.953125 3.578125 -2.5625 3.578125 -2.0625 C 3.578125 -1.71875 3.578125 -1.125 3.34375 -0.703125 C 3.109375 -0.3125 2.734375 -0.0625 2.28125 -0.0625 C 1.546875 -0.0625 0.984375 -0.59375 0.8125 -1.171875 C 0.84375 -1.171875 0.875 -1.15625 0.984375 -1.15625 C 1.3125 -1.15625 1.484375 -1.40625 1.484375 -1.640625 C 1.484375 -1.875 1.3125 -2.125 0.984375 -2.125 C 0.84375 -2.125 0.5 -2.0625 0.5 -1.609375 C 0.5 -0.75 1.1875 0.21875 2.296875 0.21875 C 3.453125 0.21875 4.46875 -0.734375 4.46875 -2 Z M 4.46875 -2 "/>
</g>
<g id="glyph-2-0">
<path d="M 3.328125 -3 C 3.390625 -3.265625 3.609375 -4.1875 4.3125 -4.1875 C 4.359375 -4.1875 4.59375 -4.1875 4.8125 -4.046875 C 4.53125 -4 4.328125 -3.75 4.328125 -3.515625 C 4.328125 -3.359375 4.4375 -3.171875 4.703125 -3.171875 C 4.921875 -3.171875 5.25 -3.34375 5.25 -3.75 C 5.25 -4.265625 4.65625 -4.40625 4.3125 -4.40625 C 3.75 -4.40625 3.390625 -3.875 3.28125 -3.640625 C 3.03125 -4.296875 2.484375 -4.40625 2.203125 -4.40625 C 1.171875 -4.40625 0.59375 -3.109375 0.59375 -2.859375 C 0.59375 -2.765625 0.703125 -2.765625 0.71875 -2.765625 C 0.796875 -2.765625 0.828125 -2.78125 0.84375 -2.875 C 1.1875 -3.9375 1.84375 -4.1875 2.1875 -4.1875 C 2.375 -4.1875 2.71875 -4.09375 2.71875 -3.515625 C 2.71875 -3.203125 2.546875 -2.53125 2.1875 -1.140625 C 2.015625 -0.53125 1.671875 -0.109375 1.234375 -0.109375 C 1.171875 -0.109375 0.953125 -0.109375 0.734375 -0.234375 C 0.984375 -0.28125 1.203125 -0.5 1.203125 -0.78125 C 1.203125 -1.046875 0.984375 -1.125 0.84375 -1.125 C 0.53125 -1.125 0.28125 -0.859375 0.28125 -0.546875 C 0.28125 -0.09375 0.78125 0.109375 1.21875 0.109375 C 1.875 0.109375 2.234375 -0.59375 2.265625 -0.640625 C 2.390625 -0.28125 2.75 0.109375 3.34375 0.109375 C 4.375 0.109375 4.9375 -1.171875 4.9375 -1.421875 C 4.9375 -1.515625 4.84375 -1.515625 4.8125 -1.515625 C 4.734375 -1.515625 4.703125 -1.484375 4.6875 -1.40625 C 4.359375 -0.34375 3.6875 -0.109375 3.359375 -0.109375 C 2.96875 -0.109375 2.8125 -0.421875 2.8125 -0.765625 C 2.8125 -0.984375 2.875 -1.203125 2.984375 -1.640625 Z M 3.328125 -3 "/>
</g>
<g id="glyph-2-1">
<path d="M 4.84375 -3.796875 C 4.875 -3.9375 4.875 -3.953125 4.875 -4.015625 C 4.875 -4.203125 4.734375 -4.296875 4.59375 -4.296875 C 4.484375 -4.296875 4.328125 -4.234375 4.234375 -4.078125 C 4.21875 -4.03125 4.140625 -3.71875 4.09375 -3.546875 C 4.03125 -3.28125 3.96875 -3.015625 3.90625 -2.75 L 3.453125 -0.953125 C 3.40625 -0.8125 2.984375 -0.109375 2.328125 -0.109375 C 1.828125 -0.109375 1.71875 -0.546875 1.71875 -0.921875 C 1.71875 -1.375 1.875 -1.984375 2.21875 -2.859375 C 2.375 -3.28125 2.421875 -3.390625 2.421875 -3.578125 C 2.421875 -4.03125 2.09375 -4.40625 1.609375 -4.40625 C 0.65625 -4.40625 0.28125 -2.953125 0.28125 -2.859375 C 0.28125 -2.765625 0.390625 -2.765625 0.40625 -2.765625 C 0.5 -2.765625 0.515625 -2.78125 0.5625 -2.953125 C 0.84375 -3.875 1.234375 -4.1875 1.578125 -4.1875 C 1.65625 -4.1875 1.828125 -4.1875 1.828125 -3.859375 C 1.828125 -3.609375 1.71875 -3.359375 1.65625 -3.171875 C 1.25 -2.109375 1.078125 -1.546875 1.078125 -1.078125 C 1.078125 -0.1875 1.703125 0.109375 2.296875 0.109375 C 2.671875 0.109375 3.015625 -0.0625 3.296875 -0.34375 C 3.171875 0.171875 3.046875 0.671875 2.640625 1.1875 C 2.390625 1.53125 2.015625 1.828125 1.546875 1.828125 C 1.40625 1.828125 0.96875 1.796875 0.796875 1.40625 C 0.953125 1.40625 1.078125 1.40625 1.21875 1.28125 C 1.328125 1.1875 1.421875 1.0625 1.421875 0.875 C 1.421875 0.5625 1.15625 0.53125 1.0625 0.53125 C 0.828125 0.53125 0.5 0.6875 0.5 1.171875 C 0.5 1.671875 0.9375 2.046875 1.546875 2.046875 C 2.578125 2.046875 3.609375 1.140625 3.875 0.015625 Z M 4.84375 -3.796875 "/>
</g>
</g>
<clipPath id="clip-0">
<path clip-rule="nonzero" d="M 6.167969 6.273438 L 216.105469 6.273438 L 216.105469 152 L 6.167969 152 Z M 6.167969 6.273438 "/>
</clipPath>
</defs>
<path fill="none" stroke-width="0.19925" stroke-linecap="butt" stroke-linejoin="miter" stroke="rgb(75%, 75%, 75%)" stroke-opacity="1" stroke-miterlimit="10" d="M 15.02176 0.00156966 L 15.02176 153.592807 M 45.059206 0.00156966 L 45.059206 153.592807 M 75.100564 0.00156966 L 75.100564 153.592807 M 135.183281 0.00156966 L 135.183281 153.592807 M 165.224639 0.00156966 L 165.224639 153.592807 M 195.265997 0.00156966 L 195.265997 153.592807 " transform="matrix(0.998363, 0, 0, -0.998363, 6.16689, 159.614848)"/>
<path fill="none" stroke-width="0.19925" stroke-linecap="butt" stroke-linejoin="miter" stroke="rgb(75%, 75%, 75%)" stroke-opacity="1" stroke-miterlimit="10" d="M 0.00108086 12.799861 L 210.282764 12.799861 M 0.00108086 44.797547 L 210.282764 44.797547 M 0.00108086 108.79683 L 210.282764 108.79683 M 0.00108086 140.794516 L 210.282764 140.794516 " transform="matrix(0.998363, 0, 0, -0.998363, 6.16689, 159.614848)"/>
<path fill="none" stroke-width="0.19925" stroke-linecap="butt" stroke-linejoin="miter" stroke="rgb(50%, 50%, 50%)" stroke-opacity="1" stroke-miterlimit="10" d="M 15.02176 74.670661 L 15.02176 78.923716 M 45.059206 74.670661 L 45.059206 78.923716 M 75.100564 74.670661 L 75.100564 78.923716 M 135.183281 74.670661 L 135.183281 78.923716 M 165.224639 74.670661 L 165.224639 78.923716 M 195.265997 74.670661 L 195.265997 78.923716 " transform="matrix(0.998363, 0, 0, -0.998363, 6.16689, 159.614848)"/>
<path fill="none" stroke-width="0.19925" stroke-linecap="butt" stroke-linejoin="miter" stroke="rgb(50%, 50%, 50%)" stroke-opacity="1" stroke-miterlimit="10" d="M 103.017351 12.799861 L 107.266494 12.799861 M 103.017351 44.797547 L 107.266494 44.797547 M 103.017351 108.79683 L 107.266494 108.79683 M 103.017351 140.794516 L 107.266494 140.794516 " transform="matrix(0.998363, 0, 0, -0.998363, 6.16689, 159.614848)"/>
<path fill="none" stroke-width="0.3985" stroke-linecap="butt" stroke-linejoin="miter" stroke="rgb(0%, 0%, 0%)" stroke-opacity="1" stroke-miterlimit="10" d="M 0.00108086 76.795232 L 208.291223 76.795232 " transform="matrix(0.998363, 0, 0, -0.998363, 6.16689, 159.614848)"/>
<path fill-rule="nonzero" fill="rgb(0%, 0%, 0%)" fill-opacity="1" d="M 216.105469 82.945312 L 212.925781 81.351562 L 214.117188 82.945312 L 212.925781 84.535156 "/>
<path fill="none" stroke-width="0.3985" stroke-linecap="butt" stroke-linejoin="miter" stroke="rgb(0%, 0%, 0%)" stroke-opacity="1" stroke-miterlimit="10" d="M 105.141922 0.00156966 L 105.141922 151.601266 " transform="matrix(0.998363, 0, 0, -0.998363, 6.16689, 159.614848)"/>
<path fill-rule="nonzero" fill="rgb(0%, 0%, 0%)" fill-opacity="1" d="M 111.136719 6.273438 L 109.546875 9.457031 L 111.136719 8.261719 L 112.726562 9.457031 "/>
<g fill="rgb(0%, 0%, 0%)" fill-opacity="1">
<use xlink:href="#glyph-0-0" x="14.807723" y="94.990797"/>
</g>
<g fill="rgb(0%, 0%, 0%)" fill-opacity="1">
<use xlink:href="#glyph-1-0" x="22.54404" y="94.990797"/>
</g>
<g fill="rgb(0%, 0%, 0%)" fill-opacity="1">
<use xlink:href="#glyph-0-0" x="44.798555" y="94.990797"/>
</g>
<g fill="rgb(0%, 0%, 0%)" fill-opacity="1">
<use xlink:href="#glyph-1-1" x="52.534871" y="94.990797"/>
</g>
<g fill="rgb(0%, 0%, 0%)" fill-opacity="1">
<use xlink:href="#glyph-0-0" x="74.789386" y="94.990797"/>
</g>
<g fill="rgb(0%, 0%, 0%)" fill-opacity="1">
<use xlink:href="#glyph-1-2" x="82.525703" y="94.990797"/>
</g>
<g fill="rgb(0%, 0%, 0%)" fill-opacity="1">
<use xlink:href="#glyph-1-2" x="138.639706" y="94.990797"/>
</g>
<g fill="rgb(0%, 0%, 0%)" fill-opacity="1">
<use xlink:href="#glyph-1-1" x="168.630538" y="94.990797"/>
</g>
<g fill="rgb(0%, 0%, 0%)" fill-opacity="1">
<use xlink:href="#glyph-1-0" x="198.622368" y="94.990797"/>
</g>
<g fill="rgb(0%, 0%, 0%)" fill-opacity="1">
<use xlink:href="#glyph-0-0" x="87.817028" y="149.627223"/>
</g>
<g fill="rgb(0%, 0%, 0%)" fill-opacity="1">
<use xlink:href="#glyph-1-2" x="95.553345" y="149.627223"/>
<use xlink:href="#glyph-1-3" x="100.526491" y="149.627223"/>
</g>
<g fill="rgb(0%, 0%, 0%)" fill-opacity="1">
<use xlink:href="#glyph-0-0" x="92.790874" y="117.681596"/>
</g>
<g fill="rgb(0%, 0%, 0%)" fill-opacity="1">
<use xlink:href="#glyph-1-4" x="100.526192" y="117.681596"/>
</g>
<g fill="rgb(0%, 0%, 0%)" fill-opacity="1">
<use xlink:href="#glyph-1-4" x="100.526192" y="54.203665"/>
</g>
<g fill="rgb(0%, 0%, 0%)" fill-opacity="1">
<use xlink:href="#glyph-1-2" x="95.553345" y="22.258039"/>
<use xlink:href="#glyph-1-3" x="100.526491" y="22.258039"/>
</g>
<g clip-path="url(#clip-0)">
<path fill="none" stroke-width="0.79701" stroke-linecap="butt" stroke-linejoin="miter" stroke="rgb(0%, 0%, 100%)" stroke-opacity="1" stroke-miterlimit="10" d="M 9.011923 268.390079 L 10.9526 236.752358 L 12.897189 207.841757 L 14.837865 181.53307 L 16.778542 157.693269 L 18.723131 136.204972 L 20.663807 116.942976 L 22.604484 99.7899 L 24.549073 84.636191 L 26.489749 71.360556 L 28.430426 59.861265 L 30.375015 50.024853 L 32.315691 41.745676 L 34.256368 34.929833 L 36.200957 29.47168 L 38.141633 25.273403 L 40.08231 22.248921 L 42.026899 20.296507 L 43.967575 19.337906 L 45.908252 19.279217 L 47.852841 20.042184 L 49.793517 21.544643 L 51.734194 23.708341 L 53.678783 26.458937 L 55.619459 29.72209 L 57.560136 33.431286 L 59.504725 37.52001 L 61.445401 41.917833 L 63.386078 46.569979 L 65.330667 51.413845 L 67.271343 56.394653 L 69.21202 61.453715 L 71.156609 66.547991 L 73.097285 71.622703 L 75.037962 76.638726 L 76.982551 81.545194 L 78.923227 86.306894 L 80.863904 90.888612 L 82.808493 95.251222 L 84.749169 99.359508 L 86.689846 103.189997 L 88.634435 106.715298 L 90.575111 109.911937 L 92.515788 112.752523 L 94.460377 115.221408 L 96.401053 117.306853 L 98.34173 118.989294 L 100.286319 120.260907 L 102.226995 121.113865 L 104.167671 121.540345 L 106.112261 121.540345 L 108.052937 121.113865 L 109.993613 120.264819 L 111.938203 118.993207 L 113.878879 117.310765 L 115.819555 115.229233 L 117.764145 112.756436 L 119.704821 109.915849 L 121.645497 106.723123 L 123.590087 103.201735 L 125.530763 99.371246 L 127.471439 95.259047 L 129.416029 90.896438 L 131.356705 86.318632 L 133.297381 81.556932 L 135.241971 76.650464 L 137.182647 71.634441 L 139.123323 66.559729 L 141.067912 61.465453 L 143.008589 56.402479 L 144.949265 51.425583 L 146.893854 46.581717 L 148.834531 41.929571 L 150.775207 37.527835 L 152.719796 33.443024 L 154.660473 29.729916 L 156.601149 26.466762 L 158.545738 23.712254 L 160.486415 21.548556 L 162.427091 20.046097 L 164.37168 19.279217 L 166.312357 19.337906 L 168.253033 20.296507 L 170.197622 22.241096 L 172.138299 25.265577 L 174.078975 29.459943 L 176.023564 34.914182 L 177.964241 41.730026 L 179.904917 50.001377 L 181.849506 59.837789 L 183.790183 71.333167 L 185.730859 84.60489 L 187.675448 99.754686 L 189.616125 116.903849 L 191.556801 136.15802 L 193.50139 157.642404 L 195.442067 181.47438 L 197.382743 207.783067 L 199.327332 236.685843 L 201.268009 268.315739 " transform="matrix(0.998363, 0, 0, -0.998363, 6.16689, 159.614848)"/>
</g>
<path fill-rule="nonzero" fill="rgb(100%, 0%, 0%)" fill-opacity="1" stroke-width="0.3985" stroke-linecap="butt" stroke-linejoin="miter" stroke="rgb(100%, 0%, 0%)" stroke-opacity="1" stroke-miterlimit="10" d="M 47.054659 19.200963 C 47.054659 20.300419 46.162574 21.192504 45.059206 21.192504 C 43.95975 21.192504 43.067665 20.300419 43.067665 19.200963 C 43.067665 18.097595 43.95975 17.20551 45.059206 17.20551 C 46.162574 17.20551 47.054659 18.097595 47.054659 19.200963 Z M 47.054659 19.200963 " transform="matrix(0.998363, 0, 0, -0.998363, 6.16689, 159.614848)"/>
<path fill-rule="nonzero" fill="rgb(100%, 0%, 0%)" fill-opacity="1" stroke-width="0.3985" stroke-linecap="butt" stroke-linejoin="miter" stroke="rgb(100%, 0%, 0%)" stroke-opacity="1" stroke-miterlimit="10" d="M 107.133463 121.595122 C 107.133463 122.694578 106.241378 123.586663 105.141922 123.586663 C 104.042467 123.586663 103.150381 122.694578 103.150381 121.595122 C 103.150381 120.495666 104.042467 119.603581 105.141922 119.603581 C 106.241378 119.603581 107.133463 120.495666 107.133463 121.595122 Z M 107.133463 121.595122 " transform="matrix(0.998363, 0, 0, -0.998363, 6.16689, 159.614848)"/>
<path fill-rule="nonzero" fill="rgb(100%, 0%, 0%)" fill-opacity="1" stroke-width="0.3985" stroke-linecap="butt" stroke-linejoin="miter" stroke="rgb(100%, 0%, 0%)" stroke-opacity="1" stroke-miterlimit="10" d="M 167.21618 19.200963 C 167.21618 20.300419 166.324095 21.192504 165.224639 21.192504 C 164.121271 21.192504 163.229185 20.300419 163.229185 19.200963 C 163.229185 18.097595 164.121271 17.20551 165.224639 17.20551 C 166.324095 17.20551 167.21618 18.097595 167.21618 19.200963 Z M 167.21618 19.200963 " transform="matrix(0.998363, 0, 0, -0.998363, 6.16689, 159.614848)"/>
<g fill="rgb(0%, 0%, 0%)" fill-opacity="1">
<use xlink:href="#glyph-2-0" x="206.906786" y="79.431306"/>
</g>
<g fill="rgb(0%, 0%, 0%)" fill-opacity="1">
<use xlink:href="#glyph-2-1" x="114.649038" y="14.070462"/>
</g>
</svg>
