<?xml version="1.0" encoding="UTF-8"?>
<svg xmlns="http://www.w3.org/2000/svg" xmlns:xlink="http://www.w3.org/1999/xlink" width="234.549" height="151.857" viewBox="0 0 234.549 151.857">
<defs>
<g>
<g id="glyph-0-0">
<path d="M 2.71875 -5.71875 C 2.71875 -5.9375 2.71875 -5.96875 2.484375 -5.96875 C 1.9375 -5.390625 1.109375 -5.390625 0.828125 -5.390625 L 0.828125 -5.109375 C 1 -5.109375 1.546875 -5.109375 2.03125 -5.34375 L 2.03125 -0.71875 C 2.03125 -0.390625 2 -0.28125 1.171875 -0.28125 L 0.890625 -0.28125 L 0.890625 0 C 1.203125 -0.03125 2 -0.03125 2.375 -0.03125 C 2.734375 -0.03125 3.546875 -0.03125 3.875 0 L 3.875 -0.28125 L 3.578125 -0.28125 C 2.75 -0.28125 2.71875 -0.390625 2.71875 -0.71875 Z M 2.71875 -5.71875 "/>
</g>
<g id="glyph-0-1">
<path d="M 4.140625 -1.578125 L 3.890625 -1.578125 C 3.875 -1.46875 3.796875 -0.9375 3.6875 -0.796875 C 3.625 -0.71875 3.015625 -0.71875 2.828125 -0.71875 L 1.234375 -0.71875 L 2.125 -1.5625 C 3.59375 -2.828125 4.140625 -3.296875 4.140625 -4.21875 C 4.140625 -5.25 3.28125 -5.96875 2.1875 -5.96875 C 1.15625 -5.96875 0.453125 -5.140625 0.453125 -4.328125 C 0.453125 -3.890625 0.84375 -3.84375 0.921875 -3.84375 C 1.125 -3.84375 1.390625 -3.984375 1.390625 -4.3125 C 1.390625 -4.578125 1.203125 -4.765625 0.921875 -4.765625 C 0.875 -4.765625 0.84375 -4.765625 0.8125 -4.765625 C 1.03125 -5.40625 1.609375 -5.6875 2.09375 -5.6875 C 3 -5.6875 3.3125 -4.828125 3.3125 -4.21875 C 3.3125 -3.296875 2.625 -2.5625 2.1875 -2.09375 L 0.5625 -0.328125 C 0.453125 -0.21875 0.453125 -0.203125 0.453125 0 L 3.890625 0 Z M 4.140625 -1.578125 "/>
</g>
<g id="glyph-0-2">
<path d="M 2.734375 -3.15625 C 3.5625 -3.46875 3.953125 -4.125 3.953125 -4.734375 C 3.953125 -5.421875 3.203125 -5.96875 2.265625 -5.96875 C 1.328125 -5.96875 0.640625 -5.4375 0.640625 -4.75 C 0.640625 -4.453125 0.828125 -4.28125 1.09375 -4.28125 C 1.359375 -4.28125 1.546875 -4.46875 1.546875 -4.734375 C 1.546875 -5.046875 1.328125 -5.1875 1.015625 -5.1875 C 1.25 -5.5625 1.796875 -5.734375 2.234375 -5.734375 C 2.984375 -5.734375 3.125 -5.140625 3.125 -4.734375 C 3.125 -4.453125 3.078125 -4.03125 2.84375 -3.6875 C 2.5625 -3.28125 2.25 -3.265625 2 -3.25 C 1.765625 -3.234375 1.75 -3.234375 1.6875 -3.234375 C 1.609375 -3.21875 1.53125 -3.21875 1.53125 -3.109375 C 1.53125 -3 1.609375 -3 1.75 -3 L 2.171875 -3 C 2.953125 -3 3.296875 -2.375 3.296875 -1.515625 C 3.296875 -0.375 2.6875 -0.046875 2.234375 -0.046875 C 2.0625 -0.046875 1.1875 -0.09375 0.78125 -0.765625 C 1.109375 -0.71875 1.359375 -0.9375 1.359375 -1.25 C 1.359375 -1.546875 1.140625 -1.734375 0.875 -1.734375 C 0.65625 -1.734375 0.390625 -1.59375 0.390625 -1.21875 C 0.390625 -0.421875 1.21875 0.203125 2.25 0.203125 C 3.375 0.203125 4.203125 -0.609375 4.203125 -1.515625 C 4.203125 -2.296875 3.59375 -2.96875 2.734375 -3.15625 Z M 2.734375 -3.15625 "/>
</g>
<g id="glyph-0-3">
<path d="M 0.265625 -1.75 L 0.265625 -1.484375 L 2.703125 -1.484375 L 2.703125 -0.703125 C 2.703125 -0.375 2.671875 -0.28125 2 -0.28125 L 1.8125 -0.28125 L 1.8125 0 C 2.375 -0.03125 3 -0.03125 3.0625 -0.03125 C 3.109375 -0.03125 3.75 -0.03125 4.3125 0 L 4.3125 -0.28125 L 4.125 -0.28125 C 3.453125 -0.28125 3.421875 -0.375 3.421875 -0.703125 L 3.421875 -1.484375 L 4.328125 -1.484375 L 4.328125 -1.75 L 3.421875 -1.75 L 3.421875 -5.8125 C 3.421875 -6 3.421875 -6.0625 3.25 -6.0625 C 3.140625 -6.0625 3.140625 -6.046875 3.046875 -5.921875 Z M 0.546875 -1.75 L 2.75 -5.0625 L 2.75 -1.75 Z M 0.546875 -1.75 "/>
</g>
<g id="glyph-0-4">
<path d="M 4.09375 -6.203125 C 4.015625 -6.359375 3.96875 -6.40625 3.828125 -6.40625 C 3.703125 -6.40625 3.640625 -6.359375 3.578125 -6.234375 L 0.5 -0.21875 C 0.453125 -0.140625 0.4375 -0.09375 0.4375 -0.078125 C 0.4375 0 0.5 0 0.640625 0 L 7.015625 0 C 7.15625 0 7.21875 0 7.21875 -0.078125 C 7.21875 -0.09375 7.21875 -0.109375 7.171875 -0.203125 Z M 3.53125 -5.53125 L 6.015625 -0.6875 L 1.046875 -0.6875 Z M 3.53125 -5.53125 "/>
</g>
<g id="glyph-0-5">
<path d="M 6.34375 -2.96875 C 6.46875 -2.96875 6.640625 -2.96875 6.640625 -3.15625 C 6.640625 -3.34375 6.4375 -3.34375 6.296875 -3.34375 L 0.84375 -3.34375 C 0.703125 -3.34375 0.515625 -3.34375 0.515625 -3.15625 C 0.515625 -2.96875 0.6875 -2.96875 0.8125 -2.96875 Z M 6.296875 -1.140625 C 6.4375 -1.140625 6.640625 -1.140625 6.640625 -1.328125 C 6.640625 -1.515625 6.46875 -1.515625 6.34375 -1.515625 L 0.8125 -1.515625 C 0.6875 -1.515625 0.515625 -1.515625 0.515625 -1.328125 C 0.515625 -1.140625 0.703125 -1.140625 0.84375 -1.140625 Z M 6.296875 -1.140625 "/>
</g>
<g id="glyph-0-6">
<path d="M 3.046875 2.125 C 3.046875 2.09375 3.03125 2.0625 2.96875 2 C 1.8125 0.9375 1.46875 -0.671875 1.46875 -2.234375 C 1.46875 -3.625 1.734375 -5.3125 3 -6.515625 C 3.03125 -6.546875 3.046875 -6.578125 3.046875 -6.609375 C 3.046875 -6.671875 3.015625 -6.71875 2.953125 -6.71875 C 2.84375 -6.71875 2.03125 -6.0625 1.546875 -5.09375 C 1.125 -4.234375 0.90625 -3.3125 0.90625 -2.25 C 0.90625 -1.609375 0.984375 -0.578125 1.484375 0.46875 C 2 1.578125 2.84375 2.234375 2.953125 2.234375 C 3.015625 2.234375 3.046875 2.1875 3.046875 2.125 Z M 3.046875 2.125 "/>
</g>
<g id="glyph-0-7">
<path d="M 2.671875 -2.25 C 2.671875 -2.984375 2.5625 -3.96875 2.09375 -4.953125 C 1.5625 -6.0625 0.734375 -6.71875 0.625 -6.71875 C 0.53125 -6.71875 0.515625 -6.640625 0.515625 -6.609375 C 0.515625 -6.578125 0.53125 -6.546875 0.59375 -6.484375 C 1.125 -6.015625 2.109375 -4.796875 2.109375 -2.25 C 2.109375 -0.96875 1.875 0.8125 0.578125 2.015625 C 0.5625 2.046875 0.515625 2.09375 0.515625 2.125 C 0.515625 2.15625 0.53125 2.234375 0.625 2.234375 C 0.734375 2.234375 1.546875 1.578125 2.015625 0.609375 C 2.453125 -0.25 2.671875 -1.171875 2.671875 -2.25 Z M 2.671875 -2.25 "/>
</g>
<g id="glyph-1-0">
<path d="M 4.5 -3.453125 C 4.5 -3.484375 4.515625 -3.546875 4.515625 -3.59375 C 4.515625 -3.71875 4.4375 -3.859375 4.25 -3.859375 C 4.125 -3.859375 3.96875 -3.78125 3.890625 -3.609375 C 3.890625 -3.578125 3.796875 -3.21875 3.75 -3.015625 L 3.296875 -1.234375 C 3.21875 -0.96875 3.21875 -0.953125 3.203125 -0.875 C 3.203125 -0.828125 2.8125 -0.125 2.171875 -0.125 C 1.625 -0.125 1.625 -0.6875 1.625 -0.859375 C 1.625 -1.265625 1.734375 -1.703125 2.125 -2.703125 C 2.1875 -2.90625 2.25 -3.03125 2.25 -3.203125 C 2.25 -3.640625 1.921875 -3.953125 1.484375 -3.953125 C 0.625 -3.953125 0.265625 -2.6875 0.265625 -2.578125 C 0.265625 -2.5 0.328125 -2.46875 0.390625 -2.46875 C 0.484375 -2.46875 0.5 -2.53125 0.53125 -2.640625 C 0.71875 -3.296875 1.078125 -3.734375 1.453125 -3.734375 C 1.671875 -3.734375 1.671875 -3.5625 1.671875 -3.4375 C 1.671875 -3.28125 1.625 -3.125 1.546875 -2.90625 C 1.125 -1.796875 1.015625 -1.421875 1.015625 -1 C 1.015625 0 1.8125 0.09375 2.15625 0.09375 C 2.59375 0.09375 2.90625 -0.140625 3.0625 -0.296875 C 2.953125 0.15625 2.84375 0.5625 2.5 1.015625 C 2.234375 1.375 1.875 1.609375 1.484375 1.609375 C 1.234375 1.609375 0.9375 1.515625 0.8125 1.265625 C 1.28125 1.265625 1.34375 0.875 1.34375 0.78125 C 1.34375 0.59375 1.203125 0.46875 1 0.46875 C 0.78125 0.46875 0.5 0.640625 0.5 1.046875 C 0.5 1.515625 0.90625 1.828125 1.484375 1.828125 C 2.390625 1.828125 3.359375 1.0625 3.625 0.015625 Z M 4.5 -3.453125 "/>
</g>
<g id="glyph-1-1">
<path d="M 4.40625 -3.609375 C 4.078125 -3.546875 3.96875 -3.265625 3.96875 -3.140625 C 3.96875 -2.96875 4.09375 -2.8125 4.328125 -2.8125 C 4.578125 -2.8125 4.8125 -3.03125 4.8125 -3.34375 C 4.8125 -3.75 4.375 -3.953125 3.953125 -3.953125 C 3.40625 -3.953125 3.09375 -3.484375 2.984375 -3.296875 C 2.8125 -3.734375 2.421875 -3.953125 2 -3.953125 C 1.03125 -3.953125 0.515625 -2.8125 0.515625 -2.578125 C 0.515625 -2.5 0.578125 -2.46875 0.640625 -2.46875 C 0.71875 -2.46875 0.75 -2.515625 0.765625 -2.5625 C 1.046875 -3.453125 1.640625 -3.734375 1.984375 -3.734375 C 2.234375 -3.734375 2.46875 -3.5625 2.46875 -3.140625 C 2.46875 -2.8125 2.09375 -1.390625 1.96875 -0.953125 C 1.890625 -0.6875 1.625 -0.125 1.140625 -0.125 C 0.953125 -0.125 0.765625 -0.1875 0.6875 -0.234375 C 0.921875 -0.28125 1.09375 -0.5 1.09375 -0.71875 C 1.09375 -0.953125 0.9375 -1.046875 0.765625 -1.046875 C 0.5 -1.046875 0.265625 -0.828125 0.265625 -0.515625 C 0.265625 -0.078125 0.75 0.09375 1.125 0.09375 C 1.640625 0.09375 1.953125 -0.328125 2.09375 -0.578125 C 2.3125 0.015625 2.84375 0.09375 3.078125 0.09375 C 4.046875 0.09375 4.5625 -1.0625 4.5625 -1.28125 C 4.5625 -1.328125 4.53125 -1.390625 4.4375 -1.390625 C 4.34375 -1.390625 4.328125 -1.359375 4.28125 -1.21875 C 4.09375 -0.578125 3.578125 -0.125 3.109375 -0.125 C 2.84375 -0.125 2.609375 -0.28125 2.609375 -0.71875 C 2.609375 -0.90625 2.734375 -1.40625 2.8125 -1.75 C 2.84375 -1.90625 3.09375 -2.875 3.109375 -2.9375 C 3.21875 -3.265625 3.484375 -3.734375 3.9375 -3.734375 C 4.09375 -3.734375 4.265625 -3.703125 4.40625 -3.609375 Z M 4.40625 -3.609375 "/>
</g>
<g id="glyph-1-2">
<path d="M 2.140625 -5.90625 C 2.171875 -6.03125 2.171875 -6.046875 2.171875 -6.09375 C 2.171875 -6.171875 2.125 -6.21875 2.046875 -6.21875 C 1.921875 -6.21875 1.125 -6.140625 0.953125 -6.125 C 0.859375 -6.109375 0.765625 -6.109375 0.765625 -5.953125 C 0.765625 -5.84375 0.859375 -5.84375 1 -5.84375 C 1.421875 -5.84375 1.421875 -5.78125 1.421875 -5.6875 C 1.421875 -5.640625 1.421875 -5.625 1.359375 -5.375 L 0.890625 -3.484375 C 0.765625 -2.984375 0.640625 -2.53125 0.546875 -2.109375 C 0.484375 -1.890625 0.421875 -1.625 0.421875 -1.328125 C 0.421875 -0.5625 0.84375 0.09375 1.625 0.09375 C 2.671875 0.09375 3.8125 -1.15625 3.8125 -2.5 C 3.8125 -3.421875 3.25 -3.953125 2.578125 -3.953125 C 2.125 -3.953125 1.734375 -3.640625 1.515625 -3.453125 Z M 1.390625 -2.9375 C 1.640625 -3.296875 2.109375 -3.734375 2.5625 -3.734375 C 2.984375 -3.734375 3.15625 -3.3125 3.15625 -2.890625 C 3.15625 -2.484375 2.90625 -1.375 2.625 -0.90625 C 2.296875 -0.328125 1.890625 -0.125 1.625 -0.125 C 1.171875 -0.125 1 -0.578125 1 -1.03125 C 1 -1.34375 1.0625 -1.578125 1.265625 -2.40625 Z M 1.390625 -2.9375 "/>
</g>
<g id="glyph-1-3">
<path d="M 3.421875 -3.40625 C 3.25 -3.71875 2.96875 -3.953125 2.5625 -3.953125 C 1.53125 -3.953125 0.375 -2.71875 0.375 -1.359375 C 0.375 -0.359375 1 0.09375 1.609375 0.09375 C 2.1875 0.09375 2.65625 -0.390625 2.796875 -0.5625 C 2.90625 -0.0625 3.34375 0.09375 3.640625 0.09375 C 3.890625 0.09375 4.125 -0.015625 4.3125 -0.390625 C 4.46875 -0.6875 4.609375 -1.25 4.609375 -1.28125 C 4.609375 -1.328125 4.578125 -1.390625 4.484375 -1.390625 C 4.375 -1.390625 4.375 -1.34375 4.328125 -1.171875 C 4.140625 -0.390625 3.9375 -0.125 3.65625 -0.125 C 3.4375 -0.125 3.390625 -0.34375 3.390625 -0.53125 C 3.390625 -0.703125 3.421875 -0.890625 3.515625 -1.203125 L 3.734375 -2.125 C 3.796875 -2.34375 3.953125 -3.015625 4 -3.15625 C 4.03125 -3.28125 4.078125 -3.484375 4.078125 -3.515625 C 4.078125 -3.65625 3.96875 -3.78125 3.8125 -3.78125 C 3.6875 -3.78125 3.46875 -3.703125 3.421875 -3.40625 Z M 2.84375 -1.09375 C 2.796875 -0.921875 2.796875 -0.90625 2.65625 -0.75 C 2.328125 -0.359375 1.953125 -0.125 1.625 -0.125 C 1.1875 -0.125 1.03125 -0.578125 1.03125 -0.96875 C 1.03125 -1.40625 1.296875 -2.4375 1.515625 -2.859375 C 1.796875 -3.40625 2.21875 -3.734375 2.5625 -3.734375 C 3.171875 -3.734375 3.296875 -3.015625 3.296875 -2.953125 C 3.296875 -2.90625 3.28125 -2.859375 3.28125 -2.8125 Z M 2.84375 -1.09375 "/>
</g>
<g id="glyph-1-4">
<path d="M 3.34375 -3.578125 L 4.15625 -3.578125 C 4.328125 -3.578125 4.421875 -3.578125 4.421875 -3.75 C 4.421875 -3.859375 4.328125 -3.859375 4.15625 -3.859375 L 3.40625 -3.859375 C 3.5 -4.390625 3.625 -5.125 3.75 -5.609375 C 3.828125 -5.96875 4.03125 -6.09375 4.21875 -6.09375 C 4.265625 -6.09375 4.46875 -6.0625 4.625 -5.96875 C 4.453125 -5.921875 4.1875 -5.765625 4.1875 -5.46875 C 4.1875 -5.25 4.359375 -5.140625 4.53125 -5.140625 C 4.765625 -5.140625 5.015625 -5.34375 5.015625 -5.6875 C 5.015625 -6.09375 4.625 -6.3125 4.203125 -6.3125 C 3.8125 -6.3125 3.40625 -6.03125 3.21875 -5.65625 C 3.015625 -5.265625 2.953125 -4.921875 2.765625 -3.859375 L 2.125 -3.859375 C 1.953125 -3.859375 1.84375 -3.859375 1.84375 -3.703125 C 1.84375 -3.578125 1.9375 -3.578125 2.109375 -3.578125 L 2.71875 -3.578125 C 2.46875 -2.28125 2.15625 -0.5 1.953125 0.4375 C 1.84375 0.9375 1.703125 1.609375 1.265625 1.609375 C 1.140625 1.609375 0.953125 1.5625 0.875 1.484375 C 1.09375 1.453125 1.3125 1.265625 1.3125 1 C 1.3125 0.765625 1.140625 0.671875 0.96875 0.671875 C 0.734375 0.671875 0.484375 0.875 0.484375 1.203125 C 0.484375 1.625 0.890625 1.828125 1.265625 1.828125 C 2.1875 1.828125 2.609375 0.34375 2.75 -0.421875 Z M 3.34375 -3.578125 "/>
</g>
<g id="glyph-2-0">
<path d="M 6.046875 -2.046875 C 6.203125 -2.046875 6.375 -2.046875 6.375 -2.25 C 6.375 -2.4375 6.203125 -2.4375 6.046875 -2.4375 L 1.09375 -2.4375 C 0.953125 -2.4375 0.765625 -2.4375 0.765625 -2.25 C 0.765625 -2.046875 0.9375 -2.046875 1.09375 -2.046875 Z M 6.046875 -2.046875 "/>
</g>
<g id="glyph-3-0">
<path d="M 0.265625 -3.859375 L 0.265625 -3.578125 L 0.40625 -3.578125 C 0.6875 -3.578125 0.953125 -3.546875 0.953125 -3.140625 L 0.953125 -0.65625 C 0.953125 -0.296875 0.71875 -0.28125 0.265625 -0.28125 L 0.265625 -0.015625 L 0.890625 -0.03125 L 2.453125 -0.03125 L 2.453125 -0.28125 L 2.15625 -0.28125 C 1.84375 -0.28125 1.59375 -0.328125 1.59375 -0.65625 L 1.59375 -2.171875 C 1.65625 -2.78125 1.828125 -3.734375 2.734375 -3.734375 L 2.734375 -3.71875 C 2.609375 -3.65625 2.546875 -3.53125 2.546875 -3.390625 C 2.546875 -3.15625 2.734375 -3 2.953125 -3 C 3.171875 -3 3.34375 -3.1875 3.34375 -3.40625 C 3.34375 -3.765625 2.96875 -3.953125 2.65625 -3.953125 C 2.109375 -3.953125 1.671875 -3.5 1.546875 -3 L 1.546875 -3.953125 Z M 0.265625 -3.859375 "/>
</g>
<g id="glyph-3-1">
<path d="M 1.03125 -2.0625 L 3.6875 -2.0625 C 3.78125 -2.0625 3.828125 -2.109375 3.828125 -2.21875 C 3.828125 -3.328125 3.140625 -4.015625 2.1875 -4.015625 C 1.09375 -4.015625 0.25 -3.0625 0.25 -1.96875 C 0.25 -0.875 1.125 0.09375 2.34375 0.09375 C 2.984375 0.09375 3.625 -0.359375 3.8125 -0.96875 C 3.8125 -1 3.828125 -1.03125 3.828125 -1.078125 C 3.828125 -1.140625 3.78125 -1.1875 3.703125 -1.1875 C 3.546875 -1.1875 3.53125 -0.921875 3.453125 -0.796875 C 3.234375 -0.421875 2.796875 -0.15625 2.359375 -0.15625 L 2.296875 -0.15625 C 1.828125 -0.171875 1.421875 -0.5 1.21875 -0.90625 C 1.046875 -1.265625 1.03125 -1.671875 1.03125 -2.0625 Z M 1.03125 -2.28125 C 1.046875 -2.859375 1.296875 -3.546875 1.9375 -3.765625 C 2.015625 -3.78125 2.09375 -3.78125 2.15625 -3.78125 C 2.921875 -3.78125 3.21875 -2.984375 3.21875 -2.28125 Z M 1.03125 -2.28125 "/>
</g>
<g id="glyph-3-2">
<path d="M 3.25 -3.53125 C 3.046875 -3.453125 2.890625 -3.34375 2.890625 -3.109375 C 2.890625 -2.890625 3.046875 -2.6875 3.296875 -2.6875 C 3.53125 -2.6875 3.71875 -2.859375 3.71875 -3.140625 C 3.71875 -3.765625 2.96875 -4 2.421875 -4.015625 L 2.328125 -4.015625 C 1.296875 -4.015625 0.296875 -3.171875 0.296875 -1.953125 C 0.296875 -0.859375 1.15625 0.09375 2.3125 0.09375 C 2.9375 0.09375 3.515625 -0.234375 3.765625 -0.875 C 3.78125 -0.9375 3.828125 -1.015625 3.828125 -1.078125 C 3.828125 -1.140625 3.765625 -1.1875 3.703125 -1.1875 C 3.546875 -1.1875 3.53125 -0.953125 3.46875 -0.828125 C 3.25 -0.421875 2.859375 -0.15625 2.359375 -0.15625 C 1.390625 -0.15625 1.078125 -1.28125 1.078125 -1.96875 C 1.078125 -2.703125 1.328125 -3.765625 2.34375 -3.765625 C 2.59375 -3.765625 2.84375 -3.71875 3.078125 -3.625 C 3.140625 -3.59375 3.1875 -3.546875 3.25 -3.53125 Z M 3.25 -3.53125 "/>
</g>
<g id="glyph-3-3">
<path d="M 1.359375 -5.515625 C 1.359375 -4.859375 1.0625 -3.8125 0.171875 -3.8125 L 0.171875 -3.578125 L 0.953125 -3.578125 L 0.953125 -1.21875 C 0.953125 -0.9375 0.96875 -0.671875 1.109375 -0.4375 C 1.328125 -0.046875 1.765625 0.09375 2.1875 0.09375 L 2.265625 0.09375 C 2.953125 -0.03125 3.0625 -0.765625 3.0625 -1.296875 L 3.0625 -1.625 L 2.8125 -1.625 C 2.8125 -1.5 2.8125 -1.375 2.8125 -1.234375 C 2.8125 -0.84375 2.734375 -0.15625 2.203125 -0.15625 C 1.71875 -0.15625 1.609375 -0.71875 1.609375 -1.15625 L 1.609375 -3.578125 L 2.90625 -3.578125 L 2.90625 -3.859375 L 1.609375 -3.859375 L 1.609375 -5.515625 Z M 1.359375 -5.515625 "/>
</g>
<g id="glyph-3-4">
<path d="M 1.09375 -3.46875 C 1.328125 -3.703125 1.703125 -3.78125 2.015625 -3.78125 C 2.34375 -3.78125 2.625 -3.609375 2.796875 -3.34375 C 2.96875 -3.09375 2.984375 -2.8125 2.984375 -2.53125 L 2.984375 -2.375 C 2.25 -2.296875 1.515625 -2.296875 0.890625 -1.828125 C 0.59375 -1.609375 0.359375 -1.25 0.359375 -0.890625 C 0.359375 -0.15625 1.25 0.09375 1.828125 0.09375 C 2.390625 0.09375 2.796875 -0.1875 3.0625 -0.65625 C 3.140625 -0.28125 3.34375 0.046875 3.765625 0.046875 C 4.296875 0.046875 4.546875 -0.40625 4.546875 -0.90625 L 4.546875 -1.3125 L 4.28125 -1.3125 L 4.28125 -0.859375 C 4.28125 -0.609375 4.234375 -0.265625 3.953125 -0.265625 C 3.65625 -0.265625 3.640625 -0.65625 3.640625 -0.859375 L 3.640625 -2.609375 C 3.640625 -3.546875 2.84375 -4.015625 2.046875 -4.015625 C 1.484375 -4.015625 0.65625 -3.78125 0.65625 -3.078125 C 0.65625 -2.828125 0.796875 -2.640625 1.125 -2.640625 C 1.34375 -2.65625 1.484375 -2.859375 1.484375 -3.0625 C 1.484375 -3.296875 1.296875 -3.421875 1.09375 -3.46875 Z M 2.984375 -2.15625 L 2.984375 -1.265625 C 2.984375 -0.65625 2.546875 -0.140625 1.921875 -0.140625 L 1.859375 -0.140625 C 1.4375 -0.171875 1.109375 -0.5 1.109375 -0.890625 C 1.109375 -1.75 2.125 -2.15625 2.984375 -2.15625 Z M 2.984375 -2.15625 "/>
</g>
<g id="glyph-3-5">
<path d="M 0.8125 -0.296875 C 1.09375 -0.015625 1.46875 0.09375 1.859375 0.09375 C 2.59375 0.09375 3.3125 -0.28125 3.3125 -1.15625 L 3.3125 -1.25 C 3.28125 -1.75 2.890625 -2.140625 2.4375 -2.3125 C 2.21875 -2.390625 1.953125 -2.421875 1.734375 -2.46875 C 1.359375 -2.546875 0.765625 -2.65625 0.765625 -3.171875 C 0.765625 -3.6875 1.421875 -3.8125 1.796875 -3.8125 C 2.359375 -3.8125 2.78125 -3.484375 2.828125 -2.84375 C 2.828125 -2.78125 2.84375 -2.6875 2.953125 -2.6875 C 3.015625 -2.6875 3.078125 -2.71875 3.078125 -2.78125 L 3.078125 -3.875 C 3.078125 -3.9375 3.046875 -4.015625 2.96875 -4.015625 C 2.84375 -4.015625 2.734375 -3.78125 2.625 -3.78125 L 2.609375 -3.78125 C 2.546875 -3.8125 2.484375 -3.859375 2.4375 -3.890625 C 2.25 -3.96875 2.015625 -4.015625 1.796875 -4.015625 C 1.15625 -4.015625 0.296875 -3.8125 0.296875 -2.890625 C 0.296875 -1.984375 1.359375 -1.828125 2 -1.703125 C 2.390625 -1.640625 2.8125 -1.40625 2.859375 -0.96875 C 2.859375 -0.328125 2.3125 -0.140625 1.84375 -0.140625 L 1.75 -0.140625 C 1.09375 -0.171875 0.75 -0.65625 0.59375 -1.28125 C 0.5625 -1.375 0.5625 -1.515625 0.4375 -1.515625 C 0.328125 -1.515625 0.296875 -1.453125 0.296875 -1.375 L 0.296875 -0.21875 C 0.296875 -0.171875 0.296875 -0.140625 0.296875 -0.09375 C 0.296875 0 0.3125 0.09375 0.40625 0.09375 C 0.5 0.09375 0.5625 -0.015625 0.625 -0.078125 L 0.65625 -0.125 C 0.71875 -0.1875 0.765625 -0.234375 0.8125 -0.296875 Z M 0.8125 -0.296875 "/>
</g>
<g id="glyph-3-6">
<path d="M 0.3125 -3.859375 L 0.3125 -3.578125 L 0.453125 -3.578125 C 0.71875 -3.578125 1 -3.546875 1 -3.140625 L 1 -0.65625 C 1 -0.296875 0.765625 -0.28125 0.3125 -0.28125 L 0.3125 -0.015625 L 0.953125 -0.03125 L 2.359375 -0.03125 L 2.359375 -0.28125 L 2.15625 -0.28125 C 1.890625 -0.28125 1.671875 -0.328125 1.671875 -0.65625 L 1.671875 -2.265625 C 1.671875 -2.953125 2.0625 -3.734375 2.921875 -3.734375 C 3.40625 -3.734375 3.546875 -3.28125 3.546875 -2.734375 L 3.546875 -0.625 C 3.546875 -0.296875 3.28125 -0.28125 2.984375 -0.28125 L 2.859375 -0.28125 L 2.859375 -0.015625 L 3.484375 -0.03125 L 4.890625 -0.03125 L 4.890625 -0.28125 L 4.734375 -0.28125 C 4.46875 -0.28125 4.203125 -0.3125 4.203125 -0.640625 L 4.203125 -2.65625 C 4.203125 -2.921875 4.203125 -3.1875 4.0625 -3.421875 C 3.84375 -3.84375 3.375 -3.953125 2.9375 -3.953125 C 2.375 -3.953125 1.8125 -3.59375 1.625 -3.078125 L 1.609375 -3.953125 Z M 0.3125 -3.859375 "/>
</g>
</g>
<clipPath id="clip-0">
<path clip-rule="nonzero" d="M 11 18.457031 L 216.097656 18.457031 L 216.097656 124 L 11 124 Z M 11 18.457031 "/>
</clipPath>
<clipPath id="clip-1">
<path clip-rule="nonzero" d="M 28 18.457031 L 216.097656 18.457031 L 216.097656 142 L 28 142 Z M 28 18.457031 "/>
</clipPath>
<clipPath id="clip-2">
<path clip-rule="nonzero" d="M 213 71 L 216.097656 71 L 216.097656 74 L 213 74 Z M 213 71 "/>
</clipPath>
<clipPath id="clip-3">
<path clip-rule="nonzero" d="M 6.214844 104 L 11 104 L 11 113 L 6.214844 113 Z M 6.214844 104 "/>
</clipPath>
<clipPath id="clip-4">
<path clip-rule="nonzero" d="M 6.214844 31 L 12 31 L 12 41 L 6.214844 41 Z M 6.214844 31 "/>
</clipPath>
</defs>
<path fill="none" stroke-width="0.29887" stroke-linecap="butt" stroke-linejoin="miter" stroke="rgb(84.999084%, 84.999084%, 84.999084%)" stroke-opacity="1" stroke-miterlimit="10" d="M 44.272259 0.00162225 L 44.272259 125.241977 M 99.608927 0.00162225 L 99.608927 125.241977 M 154.945595 0.00162225 L 154.945595 125.241977 " transform="matrix(0.998081, 0, 0, -0.998081, 6.215049, 143.45865)"/>
<path fill="none" stroke-width="0.49814" stroke-linecap="butt" stroke-linejoin="miter" stroke="rgb(75%, 75%, 75%)" stroke-opacity="1" stroke-miterlimit="10" d="M 71.938636 0.00162225 L 71.938636 125.241977 M 127.279218 0.00162225 L 127.279218 125.241977 M 182.615886 0.00162225 L 182.615886 125.241977 " transform="matrix(0.998081, 0, 0, -0.998081, 6.215049, 143.45865)"/>
<path fill="none" stroke-width="0.29887" stroke-linecap="butt" stroke-linejoin="miter" stroke="rgb(84.999084%, 84.999084%, 84.999084%)" stroke-opacity="1" stroke-miterlimit="10" d="M -0.000206105 25.049693 L 210.286177 25.049693 M -0.000206105 50.097764 L 210.286177 50.097764 M -0.000206105 75.145835 L 210.286177 75.145835 M -0.000206105 100.193906 L 210.286177 100.193906 " transform="matrix(0.998081, 0, 0, -0.998081, 6.215049, 143.45865)"/>
<path fill="none" stroke-width="0.49814" stroke-linecap="butt" stroke-linejoin="miter" stroke="rgb(75%, 75%, 75%)" stroke-opacity="1" stroke-miterlimit="10" d="M -0.000206105 37.573729 L 210.286177 37.573729 M -0.000206105 62.6218 L 210.286177 62.6218 M -0.000206105 87.669871 L 210.286177 87.669871 M -0.000206105 112.717942 L 210.286177 112.717942 " transform="matrix(0.998081, 0, 0, -0.998081, 6.215049, 143.45865)"/>
<path fill="none" stroke-width="0.19925" stroke-linecap="butt" stroke-linejoin="miter" stroke="rgb(50%, 50%, 50%)" stroke-opacity="1" stroke-miterlimit="10" d="M 44.272259 11.104962 L 44.272259 13.942439 M 99.608927 11.104962 L 99.608927 13.942439 M 154.945595 11.104962 L 154.945595 13.942439 " transform="matrix(0.998081, 0, 0, -0.998081, 6.215049, 143.45865)"/>
<path fill="none" stroke-width="0.19925" stroke-linecap="butt" stroke-linejoin="miter" stroke="rgb(50%, 50%, 50%)" stroke-opacity="1" stroke-miterlimit="10" d="M 71.938636 10.396572 L 71.938636 14.65083 M 127.279218 10.396572 L 127.279218 14.65083 M 182.615886 10.396572 L 182.615886 14.65083 " transform="matrix(0.998081, 0, 0, -0.998081, 6.215049, 143.45865)"/>
<path fill="none" stroke-width="0.19925" stroke-linecap="butt" stroke-linejoin="miter" stroke="rgb(50%, 50%, 50%)" stroke-opacity="1" stroke-miterlimit="10" d="M 15.185187 25.049693 L 18.01875 25.049693 M 15.185187 50.097764 L 18.01875 50.097764 M 15.185187 75.145835 L 18.01875 75.145835 M 15.185187 100.193906 L 18.01875 100.193906 " transform="matrix(0.998081, 0, 0, -0.998081, 6.215049, 143.45865)"/>
<path fill="none" stroke-width="0.19925" stroke-linecap="butt" stroke-linejoin="miter" stroke="rgb(50%, 50%, 50%)" stroke-opacity="1" stroke-miterlimit="10" d="M 14.476796 37.573729 L 18.727141 37.573729 M 14.476796 62.6218 L 18.727141 62.6218 M 14.476796 87.669871 L 18.727141 87.669871 M 14.476796 112.717942 L 18.727141 112.717942 " transform="matrix(0.998081, 0, 0, -0.998081, 6.215049, 143.45865)"/>
<path fill="none" stroke-width="0.3985" stroke-linecap="butt" stroke-linejoin="miter" stroke="rgb(0%, 0%, 0%)" stroke-opacity="1" stroke-miterlimit="10" d="M -0.000206105 12.525658 L 208.294073 12.525658 " transform="matrix(0.998081, 0, 0, -0.998081, 6.215049, 143.45865)"/>
<path fill-rule="nonzero" fill="rgb(0%, 0%, 0%)" fill-opacity="1" d="M 216.097656 130.957031 L 212.914062 129.367188 L 214.109375 130.957031 L 212.914062 132.550781 "/>
<path fill="none" stroke-width="0.3985" stroke-linecap="butt" stroke-linejoin="miter" stroke="rgb(0%, 0%, 0%)" stroke-opacity="1" stroke-miterlimit="10" d="M 16.601968 0.00162225 L 16.601968 123.249873 " transform="matrix(0.998081, 0, 0, -0.998081, 6.215049, 143.45865)"/>
<path fill-rule="nonzero" fill="rgb(0%, 0%, 0%)" fill-opacity="1" d="M 22.785156 18.457031 L 21.195312 21.640625 L 22.785156 20.445312 L 24.375 21.640625 "/>
<g fill="rgb(0%, 0%, 0%)" fill-opacity="1">
<use xlink:href="#glyph-0-0" x="75.71641" y="142.360761"/>
</g>
<g fill="rgb(0%, 0%, 0%)" fill-opacity="1">
<use xlink:href="#glyph-0-1" x="130.94721" y="142.360761"/>
</g>
<g fill="rgb(0%, 0%, 0%)" fill-opacity="1">
<use xlink:href="#glyph-0-2" x="186.179008" y="142.360761"/>
</g>
<g fill="rgb(0%, 0%, 0%)" fill-opacity="1">
<use xlink:href="#glyph-0-0" x="12.550867" y="108.84321"/>
</g>
<g fill="rgb(0%, 0%, 0%)" fill-opacity="1">
<use xlink:href="#glyph-0-1" x="12.550867" y="83.843281"/>
</g>
<g fill="rgb(0%, 0%, 0%)" fill-opacity="1">
<use xlink:href="#glyph-0-2" x="12.550867" y="58.843352"/>
</g>
<g fill="rgb(0%, 0%, 0%)" fill-opacity="1">
<use xlink:href="#glyph-0-3" x="12.550867" y="33.843423"/>
</g>
<g clip-path="url(#clip-0)">
<path fill="none" stroke-width="0.79701" stroke-linecap="butt" stroke-linejoin="miter" stroke="rgb(0%, 27.450562%, 54.902649%)" stroke-opacity="1" stroke-miterlimit="10" d="M 16.601968 32.564115 L 18.44535 32.325375 L 20.288731 32.117946 L 22.136027 31.937913 L 23.979408 31.785276 L 25.82279 31.660036 L 27.670085 31.562192 L 29.513466 31.491744 L 31.356848 31.448693 L 33.204143 31.436951 L 35.047524 31.448693 L 36.890906 31.491744 L 38.738201 31.562192 L 40.581583 31.660036 L 42.424964 31.785276 L 44.268346 31.937913 L 46.115641 32.117946 L 47.959022 32.325375 L 49.802404 32.564115 L 51.649699 32.826337 L 53.49308 33.119869 L 55.336462 33.440797 L 57.183757 33.789122 L 59.027139 34.164843 L 60.87052 34.56796 L 62.717815 34.998474 L 64.561197 35.456384 L 66.404578 35.945604 L 68.251874 36.458307 L 70.095255 37.00232 L 71.938636 37.573729 L 73.782018 38.172534 L 75.629313 38.798736 L 77.472695 39.452334 L 79.316076 40.133328 L 81.163371 40.841719 L 83.006753 41.58142 L 84.850134 42.344603 L 86.69743 43.139097 L 88.540811 43.960987 L 90.384193 44.806359 L 92.231488 45.683042 L 94.074869 46.591034 L 95.918251 47.522509 L 97.761632 48.481381 L 99.608927 49.471562 L 101.452309 50.485227 L 103.29569 51.530201 L 105.142986 52.602571 L 106.986367 53.698424 L 108.829749 54.825588 L 110.677044 55.984061 L 112.520425 57.166017 L 114.363807 58.375369 L 116.211102 59.616031 L 118.054483 60.880176 L 119.897865 62.175631 L 121.741246 63.498482 L 123.588542 64.844816 L 125.431923 66.22246 L 127.275305 67.631414 L 129.1226 69.06385 L 130.965981 70.523683 L 132.809363 72.014826 L 134.656658 73.529452 L 136.500039 75.075387 L 138.343421 76.644806 L 140.190716 78.245534 L 142.034098 79.873659 L 143.877479 81.52918 L 145.720861 83.216011 L 147.568156 84.926324 L 149.411537 86.664034 L 151.254919 88.433054 L 153.102214 90.22947 L 154.945595 92.049369 L 156.788977 93.900578 L 158.636272 95.779184 L 160.479654 97.685185 L 162.323035 99.622497 L 164.17033 101.583291 L 166.013712 103.571482 L 167.857093 105.590983 L 169.700475 107.63788 L 171.54777 109.708259 L 173.391151 111.809949 L 175.234533 113.939035 L 177.081828 116.095517 L 178.92521 118.28331 L 180.768591 120.494585 L 182.615886 122.733256 L 184.459268 125.003238 L 186.302649 127.300615 L 188.149945 129.621476 L 189.993326 131.973646 L 191.836708 134.353213 L 193.680089 136.760176 L 195.527384 139.198449 L 197.370766 141.660205 L 199.214147 144.149357 " transform="matrix(0.998081, 0, 0, -0.998081, 6.215049, 143.45865)"/>
</g>
<g clip-path="url(#clip-1)">
<path fill="none" stroke-width="0.79701" stroke-linecap="butt" stroke-linejoin="miter" stroke="rgb(70.588684%, 11.764526%, 11.764526%)" stroke-opacity="1" stroke-miterlimit="10" d="M 33.204143 13.511926 L 40.581583 18.31411 L 55.336462 27.910653 L 62.717815 32.708924 L 70.095255 37.511109 L 84.850134 47.107651 L 92.231488 51.905922 L 99.608927 56.708107 L 114.363807 66.304649 L 121.74516 71.10292 L 129.1226 75.905105 L 143.877479 85.501647 L 151.258833 90.299918 L 158.636272 95.102103 L 173.391151 104.698645 L 180.772505 109.496916 L 188.149945 114.299101 L 202.904824 123.895643 L 210.286177 128.693914 " transform="matrix(0.998081, 0, 0, -0.998081, 6.215049, 143.45865)"/>
</g>
<path fill="none" stroke-width="0.3985" stroke-linecap="butt" stroke-linejoin="miter" stroke="rgb(50%, 50%, 50%)" stroke-opacity="1" stroke-dasharray="2.98883 2.98883" stroke-miterlimit="10" d="M 60.87052 12.525658 L 60.87052 35.268523 " transform="matrix(0.998081, 0, 0, -0.998081, 6.215049, 143.45865)"/>
<path fill="none" stroke-width="0.3985" stroke-linecap="butt" stroke-linejoin="miter" stroke="rgb(50%, 50%, 50%)" stroke-opacity="1" stroke-dasharray="2.98883 2.98883" stroke-miterlimit="10" d="M 182.615886 12.525658 L 182.615886 107.708327 " transform="matrix(0.998081, 0, 0, -0.998081, 6.215049, 143.45865)"/>
<path fill="none" stroke-width="0.3985" stroke-linecap="butt" stroke-linejoin="miter" stroke="rgb(50%, 50%, 50%)" stroke-opacity="1" stroke-dasharray="2.98883 2.98883" stroke-miterlimit="10" d="M 16.601968 35.268523 L 60.87052 35.268523 " transform="matrix(0.998081, 0, 0, -0.998081, 6.215049, 143.45865)"/>
<path fill="none" stroke-width="0.3985" stroke-linecap="butt" stroke-linejoin="miter" stroke="rgb(50%, 50%, 50%)" stroke-opacity="1" stroke-dasharray="2.98883 2.98883" stroke-miterlimit="10" d="M 16.601968 107.708327 L 182.615886 107.708327 " transform="matrix(0.998081, 0, 0, -0.998081, 6.215049, 143.45865)"/>
<path fill="none" stroke-width="0.79701" stroke-linecap="butt" stroke-linejoin="miter" stroke="rgb(86.274719%, 39.216614%, 0%)" stroke-opacity="1" stroke-miterlimit="10" d="M 188.149945 36.066931 L 188.149945 106.90992 " transform="matrix(0.998081, 0, 0, -0.998081, 6.215049, 143.45865)"/>
<path fill="none" stroke-width="0.79701" stroke-linecap="round" stroke-linejoin="round" stroke="rgb(86.274719%, 39.216614%, 0%)" stroke-opacity="1" stroke-miterlimit="10" d="M -2.549096 3.111375 C -2.083358 1.244511 -1.046211 0.363914 -0.00123706 -0.0000654436 C -1.046211 -0.364045 -2.083358 -1.244641 -2.549096 -3.111506 " transform="matrix(0, 0.998081, 0.998081, 0, 194.003972, 107.86061)"/>
<path fill="none" stroke-width="0.79701" stroke-linecap="round" stroke-linejoin="round" stroke="rgb(86.274719%, 39.216614%, 0%)" stroke-opacity="1" stroke-miterlimit="10" d="M -2.551818 3.111506 C -2.086081 1.244641 -1.04502 0.364045 -0.0000461762 0.0000654436 C -1.04502 -0.363914 -2.086081 -1.244511 -2.551818 -3.111375 " transform="matrix(0, -0.998081, -0.998081, 0, 194.003972, 36.355423)"/>
<g fill="rgb(86.274719%, 39.216614%, 0%)" fill-opacity="1">
<use xlink:href="#glyph-0-4" x="197.711832" y="74.346542"/>
</g>
<g fill="rgb(86.274719%, 39.216614%, 0%)" fill-opacity="1">
<use xlink:href="#glyph-1-0" x="205.377093" y="74.346542"/>
</g>
<g clip-path="url(#clip-2)">
<g fill="rgb(86.274719%, 39.216614%, 0%)" fill-opacity="1">
<use xlink:href="#glyph-0-5" x="212.782853" y="74.346542"/>
</g>
</g>
<path fill="none" stroke-width="0.79701" stroke-linecap="butt" stroke-linejoin="miter" stroke="rgb(0%, 47.059631%, 23.527527%)" stroke-opacity="1" stroke-miterlimit="10" d="M 61.668927 22.544886 L 181.817479 22.544886 " transform="matrix(0.998081, 0, 0, -0.998081, 6.215049, 143.45865)"/>
<path fill="none" stroke-width="0.79701" stroke-linecap="round" stroke-linejoin="round" stroke="rgb(0%, 47.059631%, 23.527527%)" stroke-opacity="1" stroke-miterlimit="10" d="M -2.550926 3.110014 C -2.085188 1.24315 -1.048042 0.362554 0.000846234 -0.00142613 C -1.048042 -0.361492 -2.085188 -1.246002 -2.550926 -3.112866 " transform="matrix(-0.998081, 0, 0, 0.998081, 67.368032, 120.958455)"/>
<path fill="none" stroke-width="0.79701" stroke-linecap="round" stroke-linejoin="round" stroke="rgb(0%, 47.059631%, 23.527527%)" stroke-opacity="1" stroke-miterlimit="10" d="M -2.548856 3.112866 C -2.083118 1.246002 -1.045971 0.361492 -0.000997257 0.00142613 C -1.045971 -0.362554 -2.083118 -1.24315 -2.548856 -3.110014 " transform="matrix(0.998081, 0, 0, -0.998081, 188.083027, 120.958455)"/>
<g fill="rgb(0%, 47.059631%, 23.527527%)" fill-opacity="1">
<use xlink:href="#glyph-0-4" x="105.124862" y="130.884828"/>
</g>
<g fill="rgb(0%, 47.059631%, 23.527527%)" fill-opacity="1">
<use xlink:href="#glyph-1-1" x="112.789125" y="130.884828"/>
</g>
<g fill="rgb(0%, 47.059631%, 23.527527%)" fill-opacity="1">
<use xlink:href="#glyph-0-5" x="120.558186" y="130.884828"/>
</g>
<g fill="rgb(0%, 47.059631%, 23.527527%)" fill-opacity="1">
<use xlink:href="#glyph-1-2" x="130.266518" y="130.884828"/>
</g>
<g fill="rgb(0%, 47.059631%, 23.527527%)" fill-opacity="1">
<use xlink:href="#glyph-2-0" x="136.252009" y="130.884828"/>
</g>
<g fill="rgb(0%, 47.059631%, 23.527527%)" fill-opacity="1">
<use xlink:href="#glyph-1-3" x="145.449324" y="130.884828"/>
</g>
<g fill="rgb(0%, 0%, 0%)" fill-opacity="1">
<use xlink:href="#glyph-1-3" x="64.532914" y="137.885367"/>
</g>
<g fill="rgb(0%, 0%, 0%)" fill-opacity="1">
<use xlink:href="#glyph-1-2" x="186.507376" y="139.066097"/>
</g>
<g clip-path="url(#clip-3)">
<g fill="rgb(0%, 0%, 0%)" fill-opacity="1">
<use xlink:href="#glyph-1-4" x="5.766911" y="110.496032"/>
</g>
</g>
<g fill="rgb(0%, 0%, 0%)" fill-opacity="1">
<use xlink:href="#glyph-0-6" x="11.205454" y="110.496032"/>
</g>
<g fill="rgb(0%, 0%, 0%)" fill-opacity="1">
<use xlink:href="#glyph-1-3" x="14.781577" y="110.496032"/>
</g>
<g fill="rgb(0%, 0%, 0%)" fill-opacity="1">
<use xlink:href="#glyph-0-7" x="19.654208" y="110.496032"/>
</g>
<g clip-path="url(#clip-4)">
<g fill="rgb(0%, 0%, 0%)" fill-opacity="1">
<use xlink:href="#glyph-1-4" x="6.233015" y="38.197052"/>
</g>
</g>
<g fill="rgb(0%, 0%, 0%)" fill-opacity="1">
<use xlink:href="#glyph-0-6" x="11.670559" y="38.197052"/>
</g>
<g fill="rgb(0%, 0%, 0%)" fill-opacity="1">
<use xlink:href="#glyph-1-2" x="15.247681" y="38.197052"/>
</g>
<g fill="rgb(0%, 0%, 0%)" fill-opacity="1">
<use xlink:href="#glyph-0-7" x="19.189102" y="38.197052"/>
</g>
<g fill="rgb(70.588684%, 11.764526%, 11.764526%)" fill-opacity="1">
<use xlink:href="#glyph-3-0" x="109.324786" y="101.210886"/>
<use xlink:href="#glyph-3-1" x="112.921466" y="101.210886"/>
<use xlink:href="#glyph-3-2" x="117.012142" y="101.210886"/>
<use xlink:href="#glyph-3-3" x="121.099238" y="101.210886"/>
<use xlink:href="#glyph-3-4" x="124.675335" y="101.210886"/>
</g>
<g fill="rgb(70.588684%, 11.764526%, 11.764526%)" fill-opacity="1">
<use xlink:href="#glyph-3-5" x="132.334054" y="101.210886"/>
<use xlink:href="#glyph-3-1" x="135.961162" y="101.210886"/>
<use xlink:href="#glyph-3-2" x="140.051837" y="101.210886"/>
<use xlink:href="#glyph-3-4" x="144.138933" y="101.210886"/>
<use xlink:href="#glyph-3-6" x="148.737028" y="101.210886"/>
</g>
<g fill="rgb(70.588684%, 11.764526%, 11.764526%)" fill-opacity="1">
<use xlink:href="#glyph-3-3" x="153.59465" y="101.210886"/>
</g>
<path fill-rule="nonzero" fill="rgb(0%, 0%, 0%)" fill-opacity="1" stroke-width="0.3985" stroke-linecap="butt" stroke-linejoin="miter" stroke="rgb(0%, 0%, 0%)" stroke-opacity="1" stroke-miterlimit="10" d="M 63.363586 35.268523 C 63.363586 36.642254 62.248164 37.757675 60.87052 37.757675 C 59.49679 37.757675 58.381368 36.642254 58.381368 35.268523 C 58.381368 33.89088 59.49679 32.775458 60.87052 32.775458 C 62.248164 32.775458 63.363586 33.89088 63.363586 35.268523 Z M 63.363586 35.268523 " transform="matrix(0.998081, 0, 0, -0.998081, 6.215049, 143.45865)"/>
<path fill-rule="nonzero" fill="rgb(0%, 0%, 0%)" fill-opacity="1" stroke-width="0.3985" stroke-linecap="butt" stroke-linejoin="miter" stroke="rgb(0%, 0%, 0%)" stroke-opacity="1" stroke-miterlimit="10" d="M 185.105038 107.708327 C 185.105038 109.082058 183.99353 110.19748 182.615886 110.19748 C 181.242156 110.19748 180.126734 109.082058 180.126734 107.708327 C 180.126734 106.330684 181.242156 105.215262 182.615886 105.215262 C 183.99353 105.215262 185.105038 106.330684 185.105038 107.708327 Z M 185.105038 107.708327 " transform="matrix(0.998081, 0, 0, -0.998081, 6.215049, 143.45865)"/>
<g fill="rgb(0%, 0%, 0%)" fill-opacity="1">
<use xlink:href="#glyph-1-1" x="219.605733" y="132.88598"/>
</g>
<g fill="rgb(0%, 0%, 0%)" fill-opacity="1">
<use xlink:href="#glyph-1-0" x="20.358853" y="13.207103"/>
</g>
</svg>
